<ttFont>
          <CharString index="0">
            -53 22 -22 53 vhcurveto
            return
          </CharString>
          <CharString index="1">
            vlineto
            -107 callsubr
            return
          </CharString>
          <CharString index="2">
            24 callgsubr
            -283 -101 callsubr
            139 -53 callgsubr
            138 185 callsubr
            return
          </CharString>
          <CharString index="3">
            -25 callgsubr
            59 -118 -91 callgsubr
            37 -93 callgsubr
            -216 264 216 -106 callgsubr
            return
          </CharString>
          <CharString index="4">
            -53 -22 -79 callsubr
            return
          </CharString>
          <CharString index="5">
            hlineto
            -102 callgsubr
            return
          </CharString>
          <CharString index="6">
            hlineto
            -107 callgsubr
            return
          </CharString>
          <CharString index="7">
            hlineto
            14 11 3 6 7 hvcurveto
            -87 return
          </CharString>
          <CharString index="8">
            vlineto
            -105 callgsubr
            return
          </CharString>
          <CharString index="9">
            -80 callsubr
            -215 -86 callsubr
          </CharString>
          <CharString index="10">
            171 -105 callsubr
            return
          </CharString>
          <CharString index="11">
            -87 callsubr
            392 vlineto
            26 8 8 26 vhcurveto
            return
          </CharString>
          <CharString index="12">
            -24 -8 -9 -26 vhcurveto
            -47 -92 callsubr
            return
          </CharString>
          <CharString index="13">
            -90 callgsubr
            -53 -22 -22 -53 hvcurveto
            return
          </CharString>
          <CharString index="14">
            hlineto
            -100 callgsubr
            return
          </CharString>
          <CharString index="15">
            hlineto
            -9 callgsubr
            return
          </CharString>
          <CharString index="16">
            508 -103 callgsubr
          </CharString>
          <CharString index="17">
            -68 callsubr
            -37 -92 callsubr
            21 59 return
          </CharString>
          <CharString index="18">
            -67 callsubr
            -155 -61 callsubr
            vlineto
            endchar
          </CharString>
          <CharString index="19">
            vlineto
            -94 callgsubr
            return
          </CharString>
          <CharString index="20">
            262 -104 callgsubr
            return
          </CharString>
          <CharString index="21">
            hlineto
            -107 callsubr
            -91 callsubr
          </CharString>
          <CharString index="22">
            -16 callgsubr
            139 -264 -122 -81 callgsubr
            return
          </CharString>
          <CharString index="23">
            -9 -26 vhcurveto
            return
          </CharString>
          <CharString index="24">
            -26 -8 9 24 hvcurveto
            95 -14 callsubr
            138 1 callsubr
            -104 214 121 -7 callsubr
            return
          </CharString>
          <CharString index="25">
            -83 callsubr
            -143 -75 callsubr
            return
          </CharString>
          <CharString index="26">
            -103 callsubr
            -70 callgsubr
            return
          </CharString>
          <CharString index="27">
            -66 callgsubr
            -207 return
          </CharString>
          <CharString index="28">
            -22 -53 hvcurveto
            return
          </CharString>
          <CharString index="29">
            -26 -8 -8 -26 vhcurveto
            -47 -92 callsubr
            31 59 return
          </CharString>
          <CharString index="30">
            -62 callgsubr
            -349 -67 callsubr
            return
          </CharString>
          <CharString index="31">
            -107 callgsubr
            151 70 callsubr
            59 -210 202 callsubr
            -53 22 -22 53 vhcurveto
            return
          </CharString>
          <CharString index="32">
            vlineto
            -79 callgsubr
            return
          </CharString>
          <CharString index="33">
            22 53 hvcurveto
            return
          </CharString>
          <CharString index="34">
            -105 callgsubr
            -47 -101 callsubr
            return
          </CharString>
          <CharString index="35">
            394 5 callsubr
            -75 138 4 callsubr
            return
          </CharString>
          <CharString index="36">
            170 -97 callgsubr
            return
          </CharString>
          <CharString index="37">
            -261 -181 5 hlineto
            249 callgsubr
            107 -89 callgsubr
            -483 156 callsubr
            82 -88 callgsubr
            37 114 callsubr
            -109 -59 109 114 callsubr
            -37 -51 callsubr
            82 -264 -99 vlineto
            179 callgsubr
            53 22 22 53 hvcurveto
            134 221 callsubr
            107 -302 -29 callsubr
            return
          </CharString>
          <CharString index="38">
            414 -137 260 callsubr
            -198 -106 callsubr
            -33 callsubr
            410 return
          </CharString>
          <CharString index="39">
            -26 -8 -24 callgsubr
            return
          </CharString>
          <CharString index="40">
            hlineto
            -103 callsubr
            return
          </CharString>
          <CharString index="41">
            rmoveto
            -108 78 108 hlineto
            -372 55 callgsubr
            223 28 callsubr
            return
          </CharString>
          <CharString index="42">
            -78 callsubr
            -254 hlineto
            return
          </CharString>
          <CharString index="43">
            90 callgsubr
            -125 11 callgsubr
            75 -264 -92 28 callgsubr
            161 -10 callsubr
            return
          </CharString>
          <CharString index="44">
            -65 callsubr
            -53 -22 -22 -53 hvcurveto
            return
          </CharString>
          <CharString index="45">
            -59 -39 callgsubr
            return
          </CharString>
          <CharString index="46">
            -75 -62 callsubr
            return
          </CharString>
          <CharString index="47">
            -59 397 hlineto
            -73 callgsubr
            return
          </CharString>
          <CharString index="48">
            -52 callsubr
            173 return
          </CharString>
          <CharString index="49">
            16 callgsubr
            -276 207 2 callgsubr
            429 163 callsubr
          </CharString>
          <CharString index="50">
            26 8 -8 -26 hvcurveto
            return
          </CharString>
          <CharString index="51">
            -26 -5 5 26 hvcurveto
            return
          </CharString>
          <CharString index="52">
            -26 vhcurveto
            -27 hlineto
            -76 callsubr
            return
          </CharString>
          <CharString index="53">
            171 -78 callgsubr
            return
          </CharString>
          <CharString index="54">
            -29 callsubr
            75 return
          </CharString>
          <CharString index="55">
            -107 callsubr
            466 -102 callsubr
            126 -264 -109 -22 callsubr
            return
          </CharString>
          <CharString index="56">
            hlineto
            -26 -8 8 26 hvcurveto
            return
          </CharString>
          <CharString index="57">
            hlineto
            -49 callsubr
          </CharString>
          <CharString index="58">
            -53 22 -22 53 vhcurveto
            101 callgsubr
          </CharString>
          <CharString index="59">
            vlineto
            26 5 5 26 vhcurveto
            return
          </CharString>
          <CharString index="60">
            39 callgsubr
            -35 -60 callgsubr
            115 -254 -126 114 callgsubr
            185 -46 callsubr
            -244 -60 callgsubr
            158 128 callgsubr
            -115 254 126 -46 callsubr
            -447 115 callsubr
            244 -57 callgsubr
            return
          </CharString>
          <CharString index="61">
            vlineto
            53 -26 26 -53 vhcurveto
            return
          </CharString>
          <CharString index="62">
            -68 callsubr
            -47 -101 callsubr
            return
          </CharString>
          <CharString index="63">
            20 callgsubr
            -228 rlineto
            -5 -6 -8 -2 -13 hhcurveto
            return
          </CharString>
          <CharString index="64">
            rmoveto
            -44 callsubr
            return
          </CharString>
          <CharString index="65">
            -255 -78 callgsubr
            return
          </CharString>
          <CharString index="66">
            -53 -26 -26 -53 hvcurveto
            return
          </CharString>
          <CharString index="67">
            -1 -5 0 -5 -6 vvcurveto
            return
          </CharString>
          <CharString index="68">
            53 -22 22 -53 vhcurveto
            -464 hlineto
            -53 -22 -22 -53 hvcurveto
            -106 264 -28 callsubr
            return
          </CharString>
          <CharString index="69">
            79 callgsubr
            -136 vlineto
            128 callsubr
            -130 -106 callsubr
            300 -104 callgsubr
            228 -264 -57 vlineto
            -68 callsubr
            -75 -51 callsubr
            94 -88 callgsubr
            return
          </CharString>
          <CharString index="70">
            vlineto
            -16 callgsubr
            169 -264 9 callsubr
            301 63 callgsubr
          </CharString>
          <CharString index="71">
            264 137 callgsubr
          </CharString>
          <CharString index="72">
            -86 callgsubr
            76 -41 callgsubr
            return
          </CharString>
          <CharString index="73">
            vlineto
            215 callgsubr
            return
          </CharString>
          <CharString index="74">
            473 -102 callsubr
            return
          </CharString>
          <CharString index="75">
            rmoveto
            16 callsubr
            -261 90 2 callgsubr
            422 251 callsubr
            endchar
          </CharString>
          <CharString index="76">
            rmoveto
            -397 vlineto
            -21 -12 -24 callgsubr
            -28 -60 callgsubr
            395 -240 -406 -67 callgsubr
            200 hlineto
            33 16 9 17 9 hvcurveto
            -26 240 485 vlineto
            endchar
          </CharString>
          <CharString index="77">
            hlineto
            -54 callgsubr
            return
          </CharString>
          <CharString index="78">
            264 563 return
          </CharString>
          <CharString index="79">
            89 -55 callgsubr
            return
          </CharString>
          <CharString index="80">
            vlineto
            -44 callgsubr
            return
          </CharString>
          <CharString index="81">
            -453 -314 rlineto
            307 hlineto
            166 128 rlineto
            0 -8 -69 -46 vvcurveto
            -13 235 683 2 callsubr
          </CharString>
          <CharString index="82">
            -89 callgsubr
            -262 hlineto
            -49 callgsubr
            vlineto
            endchar
          </CharString>
          <CharString index="83">
            308 137 rmoveto
            -58 callgsubr
            -380 426 rmoveto
            39 callsubr
            59 -743 vlineto
            return
          </CharString>
          <CharString index="84">
            -335 -37 callsubr
          </CharString>
          <CharString index="85">
            -99 callsubr
            -20 -101 callsubr
            return
          </CharString>
          <CharString index="86">
            -78 -285 hlineto
            48 callgsubr
            return
          </CharString>
          <CharString index="87">
            rmoveto
            32 -16 16 -32 vhcurveto
            -356 hlineto
            -32 -16 -16 -32 hvcurveto
            -275 vlineto
            -32 16 -16 32 vhcurveto
            356 hlineto
            32 16 16 32 hvcurveto
            -183 16 rmoveto
            -15 -3 -3 -16 vhcurveto
            -48 hlineto
            -15 -3 3 15 hvcurveto
            243 vlineto
            15 3 3 15 vhcurveto
            48 hlineto
            16 3 -3 -15 hvcurveto
            return
          </CharString>
          <CharString index="88">
            -24 -8 -9 -55 callsubr
            225 hlineto
            return
          </CharString>
          <CharString index="89">
            -107 callgsubr
            111 273 -71 callgsubr
            191 19 callsubr
            return
          </CharString>
          <CharString index="90">
            122 callgsubr
            -436 -59 103 hlineto
            50 callsubr
            return
          </CharString>
          <CharString index="91">
            -93 callgsubr
            -52 -99 callsubr
            -182 -155 hlineto
            -53 22 -22 53 vhcurveto
            483 -103 callgsubr
          </CharString>
          <CharString index="92">
            -106 callsubr
            565 59 -342 253 callgsubr
            63 hlineto
            26 8 -10 -24 hvcurveto
            -89 247 98 vlineto
            58 -32 26 -61 vhcurveto
            162 callgsubr
            35 63 callgsubr
          </CharString>
          <CharString index="93">
            -88 callgsubr
            101 59 -101 -51 callsubr
            return
          </CharString>
          <CharString index="94">
            -335 -106 callsubr
            499 -102 callsubr
            140 -89 callgsubr
            -260 -59 62 -93 callgsubr
            -106 vlineto
            -24 -8 -9 -26 vhcurveto
            -78 -91 callgsubr
            return
          </CharString>
          <CharString index="95">
            -104 callsubr
            71 return
          </CharString>
          <CharString index="96">
            -315 vlineto
            -75 callgsubr
            return
          </CharString>
          <CharString index="97">
            -89 callgsubr
            -244 -51 callsubr
            47 -88 callgsubr
            return
          </CharString>
          <CharString index="98">
            rmoveto
            153 -46 callsubr
            -456 hlineto
            1 callgsubr
            456 -50 callgsubr
            150 -254 -139 -27 callsubr
            -44 -60 callgsubr
            442 -48 callsubr
            44 -57 callgsubr
            -142 vlineto
            endchar
          </CharString>
          <CharString index="99">
            -59 437 -372 vlineto
            -68 callsubr
            -37 262 callgsubr
            122 callsubr
            54 callgsubr
            return
          </CharString>
          <CharString index="100">
            -89 callgsubr
            -401 -67 callsubr
            return
          </CharString>
          <CharString index="101">
            -96 callgsubr
            69 return
          </CharString>
          <CharString index="102">
            -102 callgsubr
            207 -89 callgsubr
            return
          </CharString>
          <CharString index="103">
            -18 callsubr
            -121 259 104 vlineto
            -34 callgsubr
            return
          </CharString>
          <CharString index="104">
            vlineto
            -26 -8 -8 116 callsubr
            return
          </CharString>
          <CharString index="105">
            258 callsubr
            59 -269 -101 callsubr
            129 247 -71 callgsubr
            267 393 -339 -3 callsubr
            -49 19 -26 43 vhcurveto
            7 hlineto
            -183 -221 rlineto
            259 hlineto
            185 230 rlineto
            -140 260 137 callgsubr
          </CharString>
          <CharString index="106">
            -88 callgsubr
            53 59 -53 -51 callsubr
            156 -88 callgsubr
            return
          </CharString>
          <CharString index="107">
            -1 callgsubr
            88 -426 -36 callsubr
          </CharString>
          <CharString index="108">
            -106 callgsubr
            5 -93 callgsubr
            return
          </CharString>
          <CharString index="109">
            75 vlineto
            endchar
          </CharString>
          <CharString index="110">
            rmoveto
            -254 -543 hlineto
            -53 26 -26 53 vhcurveto
            465 136 callsubr
            -254 -532 49 callgsubr
            return
          </CharString>
          <CharString index="111">
            hlineto
            24 8 9 26 vhcurveto
            return
          </CharString>
          <CharString index="112">
            622 rmoveto
            return
          </CharString>
          <CharString index="113">
            -78 -285 vlineto
            48 callgsubr
            return
          </CharString>
          <CharString index="114">
            hlineto
            6 callgsubr
          </CharString>
          <CharString index="115">
            -106 callsubr
            252 -104 callgsubr
            249 callsubr
            -95 vlineto
            -68 callsubr
            -27 -92 callsubr
            endchar
          </CharString>
          <CharString index="116">
            -152 -81 callgsubr
            return
          </CharString>
          <CharString index="117">
            vlineto
            66 -8 49 0 vhcurveto
            185 return
          </CharString>
          <CharString index="118">
            vlineto
            -73 callgsubr
            return
          </CharString>
          <CharString index="119">
            rmoveto
            -33 -16 -9 -17 -9 hvcurveto
            26 273 callgsubr
            397 vlineto
            21 12 -18 callgsubr
            28 -57 callgsubr
            -395 240 406 103 callsubr
          </CharString>
          <CharString index="120">
            -56 callgsubr
            146 -912 96 callgsubr
            92 callsubr
            return
          </CharString>
          <CharString index="121">
            -719 -59 380 -3 callgsubr
            -272 -83 callgsubr
            244 callsubr
            -22 53 vhcurveto
            499 -22 callgsubr
          </CharString>
          <CharString index="122">
            vlineto
            -53 22 -22 53 vhcurveto
            38 hlineto
            -148 -218 rlineto
            262 hlineto
            142 228 rlineto
            -138 43 callsubr
          </CharString>
          <CharString index="123">
            -44 callgsubr
            -38 14 callgsubr
            38 -57 callgsubr
            return
          </CharString>
          <CharString index="124">
            -53 -22 -22 -53 hvcurveto
            -257 37 callgsubr
            return
          </CharString>
          <CharString index="125">
            56 callgsubr
            106 return
          </CharString>
          <CharString index="126">
            -89 callgsubr
            -452 -67 callsubr
            return
          </CharString>
          <CharString index="127">
            -102 callsubr
            273 return
          </CharString>
          <CharString index="128">
            -59 415 -78 -279 vlineto
            -103 callsubr
            -70 -106 callsubr
            269 106 callgsubr
            -62 53 -278 -190 278 78 285 -102 callsubr
            96 -89 callgsubr
            -269 216 callsubr
            return
          </CharString>
          <CharString index="129">
            12 18 -5 24 hhcurveto
            return
          </CharString>
          <CharString index="130">
            rmoveto
            -228 hlineto
            -136 -155 rlineto
            186 hlineto
            return
          </CharString>
          <CharString index="131">
            -81 callsubr
            132 hlineto
            -40 callsubr
            -64 callgsubr
            return
          </CharString>
          <CharString index="132">
            -257 8 callsubr
          </CharString>
          <CharString index="133">
            339 59 rmoveto
            return
          </CharString>
          <CharString index="134">
            -37 callgsubr
            -280 vlineto
            -178 221 -30 callgsubr
            343 -1 callgsubr
            return
          </CharString>
          <CharString index="135">
            -106 callgsubr
            82 hlineto
            return
          </CharString>
          <CharString index="136">
            -13 -6 -6 -13 -22 vvcurveto
            return
          </CharString>
          <CharString index="137">
            vlineto
            -179 222 -30 callgsubr
            343 hlineto
            return
          </CharString>
          <CharString index="138">
            hlineto
            24 16 5 9 11 hvcurveto
            -9 12 18 -5 24 77 callsubr
          </CharString>
          <CharString index="139">
            rmoveto
            -105 callgsubr
            -48 -101 callsubr
            111 28 callsubr
            return
          </CharString>
          <CharString index="140">
            -99 callsubr
            -62 return
          </CharString>
          <CharString index="141">
            rmoveto
            169 callgsubr
            -332 vlineto
            239 callsubr
            -1166 -426 -8 callgsubr
            1458 485 rmoveto
            -1861 -59 68 -410 hlineto
            -94 callgsubr
            76 192 callsubr
          </CharString>
          <CharString index="142">
            24 callgsubr
            -283 -101 callsubr
            144 -53 callgsubr
            133 185 callsubr
            -959 -393 32 callsubr
            return
          </CharString>
          <CharString index="143">
            -85 callgsubr
            -454 -67 callsubr
            -62 264 45 61 callgsubr
            -104 61 callsubr
            -137 vlineto
            return
          </CharString>
          <CharString index="144">
            75 -84 rlineto
            222 hlineto
            -188 163 rlineto
            -217 hlineto
            return
          </CharString>
          <CharString index="145">
            473 20 callsubr
            return
          </CharString>
          <CharString index="146">
            -69 callsubr
            65 return
          </CharString>
          <CharString index="147">
            17 callgsubr
            vlineto
            endchar
          </CharString>
          <CharString index="148">
            rmoveto
            26 5 5 26 vhcurveto
            47 -57 callgsubr
            -9 -27 callsubr
            -47 -60 callgsubr
            180 -90 rmoveto
            53 26 26 53 hvcurveto
            31 -46 callsubr
            -251 -4 callgsubr
            -31 -67 callgsubr
            return
          </CharString>
          <CharString index="149">
            -53 -22 -22 -53 hvcurveto
            -257 vlineto
            -53 22 -22 53 vhcurveto
            473 211 callsubr
            return
          </CharString>
          <CharString index="150">
            112 callgsubr
            32 -93 callgsubr
            -223 3 callgsubr
            257 -89 callgsubr
            -257 hlineto
            -49 callgsubr
            vlineto
            endchar
          </CharString>
          <CharString index="151">
            rmoveto
            163 130 -163 hlineto
            -703 206 rmoveto
            268 callsubr
            -91 -106 callsubr
            90 callgsubr
            -117 11 callgsubr
            68 -264 -85 28 callgsubr
            153 -89 callgsubr
            -244 -51 callsubr
            55 -88 callgsubr
            295 137 236 59 hlineto
            endchar
          </CharString>
          <CharString index="152">
            -254 hlineto
            -73 callsubr
            254 -251 -271 -106 callsubr
            467 217 callsubr
            return
          </CharString>
          <CharString index="153">
            rmoveto
            137 116 59 -782 -59 402 -78 -259 252 callsubr
            20 25 callgsubr
            19 -102 callsubr
            130 -89 callgsubr
            -260 -59 62 -93 callgsubr
            -96 256 callgsubr
            281 63 callgsubr
          </CharString>
          <CharString index="154">
            24 callgsubr
            -19 -51 callsubr
            137 -88 callgsubr
            19 hlineto
            -57 callsubr
            return
          </CharString>
          <CharString index="155">
            221 callgsubr
            59 -95 -51 callsubr
            117 -88 callgsubr
            return
          </CharString>
          <CharString index="156">
            -47 callsubr
            endchar
          </CharString>
          <CharString index="157">
            29 callsubr
            -232 -106 callsubr
            return
          </CharString>
          <CharString index="158">
            238 59 -238 215 279 59 -543 -622 556 59 return
          </CharString>
          <CharString index="159">
            -89 352 56 callsubr
            return
          </CharString>
          <CharString index="160">
            243 callgsubr
            43 135 callsubr
            return
          </CharString>
          <CharString index="161">
            203 callgsubr
            -342 hlineto
            -49 callgsubr
            149 callgsubr
            return
          </CharString>
          <CharString index="162">
            -40 callsubr
            -23 callsubr
          </CharString>
          <CharString index="163">
            90 -45 callgsubr
            return
          </CharString>
          <CharString index="164">
            715 1066 392 248 callsubr
            4 hlineto
            -57 callsubr
            -106 vlineto
            -68 callsubr
            -4 -51 callsubr
            -318 277 rmoveto
            703 59 -1471 -59 505 -311 -12 hlineto
            -92 162 rlineto
            55 -31 -26 16 -96 hhcurveto
            -223 -59 32 hlineto
            60 21 -11 -44 24 hvcurveto
            72 -135 -198 -236 rlineto
            286 hlineto
            163 193 rlineto
            20 -193 263 193 return
          </CharString>
          <CharString index="165">
            -30 callgsubr
            343 hlineto
            12 10 1 return
          </CharString>
          <CharString index="166">
            255 callsubr
            322 170 rmoveto
            59 -782 -59 259 227 callsubr
            return
          </CharString>
          <CharString index="167">
            -48 callsubr
            53 -57 callgsubr
            return
          </CharString>
          <CharString index="168">
            -285 vlineto
            -103 callsubr
            return
          </CharString>
          <CharString index="169">
            -257 144 callsubr
          </CharString>
          <CharString index="170">
            98 callgsubr
            -77 -27 callsubr
            -273 -59 129 callgsubr
            547 vlineto
            endchar
          </CharString>
          <CharString index="171">
            -89 callgsubr
            -441 -67 callsubr
            return
          </CharString>
          <CharString index="172">
            hlineto
            -18 callsubr
            return
          </CharString>
          <CharString index="173">
            383 1047 34 rmoveto
            529 72 59 -1139 -59 803 92 callgsubr
            -333 return
          </CharString>
          <CharString index="174">
            485 rmoveto
            -161 hlineto
            -77 callsubr
            -240 -99 callsubr
            -42 161 callsubr
            848 vlineto
            return
          </CharString>
          <CharString index="175">
            464 -102 callsubr
            return
          </CharString>
          <CharString index="176">
            -107 callgsubr
            139 180 callgsubr
            172 -314 rlineto
            -5 -5 -8 -2 -13 hhcurveto
            return
          </CharString>
          <CharString index="177">
            vlineto
            272 callgsubr
            return
          </CharString>
          <CharString index="178">
            -40 callsubr
            91 callgsubr
          </CharString>
          <CharString index="179">
            rmoveto
            186 hlineto
            178 155 rlineto
            -228 hlineto
            return
          </CharString>
          <CharString index="180">
            rmoveto
            -107 callgsubr
            162 220 callgsubr
            -195 hlineto
            -105 callgsubr
            return
          </CharString>
          <CharString index="181">
            hlineto
            -57 callsubr
            -67 vlineto
            -68 callsubr
            return
          </CharString>
          <CharString index="182">
            rmoveto
            -749 -59 391 hlineto
            -57 callsubr
            -152 33 callsubr
            88 23 callgsubr
            193 29 callgsubr
            162 261 callsubr
            hlineto
            endchar
          </CharString>
          <CharString index="183">
            hvcurveto
            -157 -99 callsubr
            return
          </CharString>
          <CharString index="184">
            hhcurveto
            153 callsubr
          </CharString>
          <CharString index="185">
            rmoveto
            -105 callgsubr
            -48 -101 callsubr
            103 28 callsubr
            return
          </CharString>
          <CharString index="186">
            45 22 -3 -31 27 hvcurveto
            107 -125 -224 -267 rlineto
            293 hlineto
            176 222 rlineto
            return
          </CharString>
          <CharString index="187">
            rmoveto
            -24 -8 -9 -26 vhcurveto
            -70 hlineto
            -26 -8 9 24 hvcurveto
            301 59 callsubr
            190 callsubr
          </CharString>
          <CharString index="188">
            -410 vlineto
            133 callsubr
            return
          </CharString>
          <CharString index="189">
            rmoveto
            -1102 -59 780 -78 -349 45 callsubr
            98 -232 vlineto
            -26 callsubr
          </CharString>
          <CharString index="190">
            -59 callgsubr
            69 260 callgsubr
            return
          </CharString>
          <CharString index="191">
            rmoveto
            -718 -59 379 -40 callgsubr
            return
          </CharString>
          <CharString index="192">
            158 callsubr
            55 -48 callsubr
            131 return
          </CharString>
          <CharString index="193">
            107 callsubr
            403 52 callgsubr
          </CharString>
          <CharString index="194">
            -106 callsubr
            38 callsubr
            88 -426 -36 callsubr
          </CharString>
          <CharString index="195">
            474 20 callsubr
            return
          </CharString>
          <CharString index="196">
            -102 callsubr
            169 return
          </CharString>
          <CharString index="197">
            rmoveto
            -239 -141 239 hlineto
            return
          </CharString>
          <CharString index="198">
            -46 callgsubr
            38 400 rmoveto
            -48 callgsubr
            -26 240 485 -240 vlineto
            return
          </CharString>
          <CharString index="199">
            -351 vlineto
            -100 callgsubr
            return
          </CharString>
          <CharString index="200">
            rmoveto
            212 callsubr
            499 -102 callsubr
            92 vlineto
            endchar
          </CharString>
          <CharString index="201">
            vlineto
            102 callgsubr
            return
          </CharString>
          <CharString index="202">
            -34 callsubr
            100 return
          </CharString>
          <CharString index="203">
            vlineto
            -103 callsubr
            -196 -106 callsubr
            return
          </CharString>
          <CharString index="204">
            29 callsubr
            -138 -75 callsubr
            -136 -106 callsubr
            173 hlineto
            -111 -159 rlineto
            247 hlineto
            91 159 rlineto
            9 hlineto
            85 -159 rlineto
            247 hlineto
            -103 159 rlineto
            152 -102 callsubr
            315 vlineto
            return
          </CharString>
          <CharString index="205">
            -55 callgsubr
            89 -161 144 callsubr
          </CharString>
          <CharString index="206">
            hlineto
            18 -56 19 -60 18 -63 25 -51 rlinecurve
            -9 hlineto
            -31 58 -35 54 -50 61 -46 57 rcurveline
            -226 hlineto
            135 -127 61 -58 38 -30 20 -15 rlinecurve
            return
          </CharString>
          <CharString index="207">
            88 callgsubr
            -207 return
          </CharString>
          <CharString index="208">
            29 callsubr
            -310 -106 callsubr
            254 59 -31 -101 callsubr
            return
          </CharString>
          <CharString index="209">
            485 rmoveto
            -636 210 callgsubr
            840 hlineto
            -342 -393 -97 callgsubr
            681 196 rmoveto
            return
          </CharString>
          <CharString index="210">
            -46 callsubr
            endchar
          </CharString>
          <CharString index="211">
            -22 197 callsubr
            210 -59 228 callgsubr
            349 82 59 -734 -59 401 -78 -271 96 callsubr
            return
          </CharString>
          <CharString index="212">
            -102 callgsubr
            103 vlineto
            6 211 callgsubr
            return
          </CharString>
          <CharString index="213">
            -127 -106 callsubr
            return
          </CharString>
          <CharString index="214">
            142 callgsubr
            -248 216 callsubr
            return
          </CharString>
          <CharString index="215">
            174 vlineto
            -39 callsubr
            return
          </CharString>
          <CharString index="216">
            152 -42 hlineto
            -84 11 -99 0 vhcurveto
            -5 -246 rmoveto
            -105 callgsubr
            -128 -101 callsubr
            133 -106 callgsubr
            128 -93 callgsubr
            -31 92 rmoveto
            -125 -101 callsubr
            42 vlineto
            99 -7 53 2 vvcurveto
            return
          </CharString>
          <CharString index="217">
            rmoveto
            53 -26 26 -53 vhcurveto
            -251 -4 callgsubr
            -31 -67 callgsubr
            251 -50 callgsubr
            -150 11 39 callgsubr
            -47 -60 callgsubr
            9 -48 callsubr
            47 -57 callgsubr
            return
          </CharString>
          <CharString index="218">
            -178 221 rlineto
            128 59 -323 hlineto
            return
          </CharString>
          <CharString index="219">
            -102 callgsubr
            277 return
          </CharString>
          <CharString index="220">
            hlineto
            102 callgsubr
            563 75 vlineto
            endchar
          </CharString>
          <CharString index="221">
            hlineto
            -57 callsubr
            -116 vlineto
            -68 callsubr
            return
          </CharString>
          <CharString index="222">
            -4 callgsubr
            -180 -67 callgsubr
            return
          </CharString>
          <CharString index="223">
            -26 vhcurveto
            86 callgsubr
            151 70 callsubr
            59 -210 202 callsubr
            return
          </CharString>
          <CharString index="224">
            22 7 9 21 2 vhcurveto
            return
          </CharString>
          <CharString index="225">
            -63 callsubr
            62 callsubr
          </CharString>
          <CharString index="226">
            264 154 callsubr
          </CharString>
          <CharString index="227">
            -43 callsubr
            1084 485 rmoveto
            return
          </CharString>
          <CharString index="228">
            vlineto
            -80 callsubr
            return
          </CharString>
          <CharString index="229">
            218 callgsubr
            -244 -67 callsubr
            return
          </CharString>
          <CharString index="230">
            -59 404 hlineto
            -57 callsubr
            -147 -99 callsubr
            -72 127 -264 -401 hlineto
            -107 callsubr
            351 59 -128 -101 callsubr
            198 280 vlineto
            -174 -178 rlineto
            288 hlineto
            return
          </CharString>
          <CharString index="231">
            -75 callsubr
            -98 -106 callsubr
            return
          </CharString>
          <CharString index="232">
            291 hlineto
            -310 -504 rlineto
            -59 588 59 -300 vlineto
            310 504 rlineto
            return
          </CharString>
          <CharString index="233">
            194 callgsubr
            119 247 vlineto
            112 callsubr
            return
          </CharString>
          <CharString index="234">
            -356 56 5 callsubr
            -622 264 622 vlineto
            return
          </CharString>
          <CharString index="235">
            -29 7 -17 17 -7 vhcurveto
            -20 -67 callsubr
            return
          </CharString>
          <CharString index="236">
            187 -46 callsubr
            return
          </CharString>
          <CharString index="237">
            198 callgsubr
            -48 18 -27 43 vhcurveto
            8 hlineto
            -183 -221 rlineto
            259 hlineto
            193 240 rlineto
            53 40 hlineto
            endchar
          </CharString>
          <CharString index="238">
            hlineto
            55 callsubr
          </CharString>
          <CharString index="239">
            405 94 callgsubr
            return
          </CharString>
          <CharString index="240">
            -107 callsubr
            458 -102 callsubr
            410 return
          </CharString>
          <CharString index="241">
            -392 hlineto
            -68 callsubr
            -107 hlineto
            122 callgsubr
            return
          </CharString>
          <CharString index="242">
            -93 callgsubr
            -138 -61 callsubr
            return
          </CharString>
          <CharString index="243">
            -50 callgsubr
            543 return
          </CharString>
          <CharString index="244">
            -59 68 -410 return
          </CharString>
          <CharString index="245">
            -17 callgsubr
            330 -68 callgsubr
            return
          </CharString>
          <CharString index="246">
            -67 callsubr
            -196 -106 callsubr
            return
          </CharString>
          <CharString index="247">
            -47 -75 callsubr
            return
          </CharString>
          <CharString index="248">
            rmoveto
            -339 -451 hlineto
            -68 callsubr
            -358 34 callgsubr
            return
          </CharString>
          <CharString index="249">
            -59 425 -78 -285 hlineto
            155 callgsubr
            return
          </CharString>
          <CharString index="250">
            vlineto
            71 callsubr
          </CharString>
          <CharString index="251">
            -106 callsubr
            272 -103 callgsubr
          </CharString>
          <CharString index="252">
            rmoveto
            -228 hlineto
            178 -155 rlineto
            186 hlineto
            endchar
          </CharString>
          <CharString index="253">
            61 callgsubr
            -157 61 callsubr
            return
          </CharString>
          <CharString index="254">
            -162 39 callgsubr
            -79 -59 256 -50 callgsubr
            128 -225 vlineto
            return
          </CharString>
          <CharString index="255">
            vlineto
            53 -22 21 -53 vhcurveto
            5 vlineto
            249 callgsubr
            return
          </CharString>
          <CharString index="256">
            rlineto
            -6 -5 -9 -2 -13 hhcurveto
            return
          </CharString>
          <CharString index="257">
            310 83 callgsubr
            return
          </CharString>
          <CharString index="258">
            59 -491 -59 234 vlineto
            -252 -367 rlineto
            -59 523 59 return
          </CharString>
          <CharString index="259">
            vlineto
            29 callsubr
            -138 -75 callsubr
            return
          </CharString>
          <CharString index="260">
            88 callsubr
            108 -426 104 callgsubr
          </CharString>
          <CharString index="261">
            563 75 hlineto
            endchar
          </CharString>
          <CharString index="262">
            rmoveto
            248 hlineto
            -141 148 141 147 rlineto
            -248 hlineto
            -146 -147 rlineto
            return
          </CharString>
          <CharString index="263">
            hlineto
            75 callgsubr
            return
          </CharString>
          <CharString index="264">
            107 callgsubr
            endchar
          </CharString>
          <CharString index="265">
            rmoveto
            -56 callsubr
            return
          </CharString>
          <CharString index="266">
            rlineto
            262 hlineto
            142 return
          </CharString>
          <CharString index="267">
            -392 -105 callsubr
            return
          </CharString>
          <CharString index="268">
            -101 callsubr
            393 return
          </CharString>
          <CharString index="269">
            39 callgsubr
            -28 hlineto
            -26 -12 9 20 hvcurveto
            308 vlineto
            21 12 -18 callgsubr
            28 -57 callgsubr
            -39 90 rmoveto
            -41 -16 -15 -25 -6 hvcurveto
            return
          </CharString>
          <CharString index="270">
            -50 callgsubr
            85 -232 -74 49 callgsubr
            129 347 129 callsubr
            endchar
          </CharString>
          <CharString index="271">
            -103 callsubr
            -83 -106 callsubr
            90 callgsubr
            return
          </CharString>
          <CharString index="272">
            233 callgsubr
            -157 204 callsubr
            -48 callsubr
            131 90 return
          </CharString>
          <CharString index="273">
            -106 callsubr
            -38 callgsubr
            return
          </CharString>
          <CharString index="274">
            rmoveto
            -669 240 669 vlineto
            372 -184 rmoveto
            -238 hlineto
            -134 -240 132 -245 rlineto
            240 hlineto
            -141 245 rlineto
            endchar
          </CharString>
          <CharString index="275">
            rmoveto
            59 -88 126 -240 -126 -78 -59 78 -347 -67 callgsubr
            248 59 -56 -60 callgsubr
            336 vlineto
            endchar
          </CharString>
          <CharString index="276">
            485 rmoveto
            193 callgsubr
            return
          </CharString>
          <CharString index="277">
            196 634 -196 hlineto
            236 -185 rmoveto
            196 185 -196 hlineto
            return
          </CharString>
          <CharString index="278">
            hlineto
            -98 124 rlineto
            39 -31 -32 9 -77 hhcurveto
            return
          </CharString>
          <CharString index="279">
            51 26 callgsubr
            return
          </CharString>
          <CharString index="280">
            -63 -106 callsubr
            return
          </CharString>
          <CharString index="281">
            -50 callgsubr
            100 return
          </CharString>
          <CharString index="282">
            -237 -106 callsubr
            104 hlineto
            -171 -188 rlineto
            269 hlineto
            171 201 rlineto
            -111 -36 callsubr
          </CharString>
          <CharString index="283">
            -146 -155 rlineto
            166 hlineto
            188 155 rlineto
            return
          </CharString>
          <CharString index="284">
            rmoveto
            107 callgsubr
            return
          </CharString>
          <CharString index="285">
            -156 -106 callsubr
            return
          </CharString>
          <CharString index="286">
            rmoveto
            -49 callgsubr
            return
          </CharString>
          <CharString index="287">
            10 1 2 8 hvcurveto
            return
          </CharString>
          <CharString index="288">
            -6 callgsubr
            -135 -106 callsubr
            545 59 -322 253 callgsubr
            return
          </CharString>
          <CharString index="289">
            -67 callsubr
            -110 vlineto
            -23 7 -19 13 -15 vhcurveto
            -13 -14 -7 -19 -23 vvcurveto
            -111 -106 callsubr
            348 59 return
          </CharString>
          <CharString index="290">
            -40 callsubr
            62 callsubr
          </CharString>
          <CharString index="291">
            -106 callsubr
            274 hlineto
            -57 callsubr
            -77 vlineto
            -68 callsubr
            -48 -101 callsubr
            55 -264 return
          </CharString>
          <CharString index="292">
            -77 callgsubr
            129 hlineto
            return
          </CharString>
          <CharString index="293">
            -37 -101 callsubr
            return
          </CharString>
          <CharString index="294">
            -101 callsubr
            75 return
          </CharString>
          <CharString index="295">
            -716 -188 5 callsubr
            -31 58 -35 54 -50 61 -46 57 rcurveline
            -226 hlineto
            135 -127 rlineto
            97 -92 40 -23 0 vvcurveto
            return
          </CharString>
          <CharString index="296">
            811 194 callsubr
            return
          </CharString>
          <CharString index="297">
            -335 -106 callsubr
            496 -102 callsubr
            335 -89 callgsubr
            -116 78 hlineto
            endchar
          </CharString>
          <CharString index="298">
            -76 -23 -24 -76 hvcurveto
            -5 hlineto
            76 -23 24 -76 vhcurveto
            return
          </CharString>
          <CharString index="299">
            -273 200 callsubr
          </CharString>
          <CharString index="300">
            259 callgsubr
            -188 231 rlineto
            128 59 return
          </CharString>
          <CharString index="301">
            vlineto
            -342 -393 -97 callgsubr
            return
          </CharString>
          <CharString index="302">
            -716 28 852 rmoveto
            -272 -67 callsubr
            -181 264 164 -106 callgsubr
            49 hlineto
            return
          </CharString>
          <CharString index="303">
            -47 rmoveto
            273 callgsubr
            338 hlineto
            43 25 33 54 vhcurveto
            90 74 -41 hlineto
            -73 -39 -23 -39 -16 hvcurveto
            endchar
          </CharString>
          <CharString index="304">
            295 198 73 callsubr
            return
          </CharString>
          <CharString index="305">
            -74 callgsubr
            131 59 return
          </CharString>
          <CharString index="306">
            -47 206 callsubr
          </CharString>
          <CharString index="307">
            hlineto
            -107 callsubr
            38 callsubr
            88 -426 -36 callsubr
          </CharString>
          <CharString index="308">
            vlineto
            -17 9 16 -9 33 hhcurveto
            200 -50 callgsubr
            return
          </CharString>
          <CharString index="309">
            -67 callsubr
            -185 vlineto
            return
          </CharString>
          <CharString index="310">
            90 39 callgsubr
            return
          </CharString>
          <CharString index="311">
            -60 callgsubr
            55 return
          </CharString>
          <CharString index="312">
            137 212 callgsubr
            return
          </CharString>
          <CharString index="313">
            rmoveto
            -579 -59 125 callsubr
            endchar
          </CharString>
          <CharString index="314">
            -89 callgsubr
            -428 -67 callsubr
            -105 vlineto
            -29 7 -17 16 -7 vhcurveto
            -83 hlineto
            endchar
          </CharString>
          <CharString index="315">
            -289 rmoveto
            -58 callgsubr
            return
          </CharString>
          <CharString index="316">
            -75 vlineto
            -24 -7 -84 callsubr
            -146 187 callsubr
            -211 -89 vlineto
            -48 13 -30 57 vhcurveto
            return
          </CharString>
          <CharString index="317">
            53 hvcurveto
            207 -89 callgsubr
            515 hmoveto
            -339 -622 119 callsubr
          </CharString>
          <CharString index="318">
            20 callsubr
            101 231 callsubr
            -335 -106 callsubr
            return
          </CharString>
          <CharString index="319">
            -75 -99 callsubr
            -73 187 callsubr
            -254 -92 -106 callsubr
            return
          </CharString>
          <CharString index="320">
            hlineto
            -107 callsubr
            272 -103 callgsubr
          </CharString>
          <CharString index="321">
            -224 rmoveto
            -76 callgsubr
            129 -224 hlineto
            return
          </CharString>
          <CharString index="322">
            rmoveto
            -105 callgsubr
            -48 -101 callsubr
            162 28 callsubr
            return
          </CharString>
          <CharString index="323">
            -51 callsubr
            34 -88 callgsubr
            return
          </CharString>
          <CharString index="324">
            -102 callsubr
            212 return
          </CharString>
          <CharString index="325">
            -105 callgsubr
            -65 146 return
          </CharString>
          <CharString index="326">
            rmoveto
            548 58 -548 hlineto
            return
          </CharString>
          <CharString index="327">
            rmoveto
            -548 -58 548 hlineto
            return
          </CharString>
          <CharString index="328">
            vlineto
            5 211 callgsubr
            return
          </CharString>
          <CharString index="329">
            -172 401 699 rmoveto
            -431 -835 rlineto
            203 hlineto
            431 835 rlineto
            endchar
          </CharString>
          <CharString index="330">
            278 16 callgsubr
            return
          </CharString>
          <CharString index="331">
            -167 -304 169 -318 rlineto
            265 hlineto
            -178 318 176 304 rlineto
            return
          </CharString>
          <CharString index="332">
            180 callsubr
            -6 -106 callsubr
            return
          </CharString>
          <CharString index="333">
            rmoveto
            -84 hlineto
            -170 -213 rlineto
            -77 254 vlineto
            return
          </CharString>
          <CharString index="334">
            -78 -116 vlineto
            -103 callsubr
            return
          </CharString>
          <CharString index="335">
            -105 callgsubr
            -28 151 277 callgsubr
            492 return
          </CharString>
          <CharString index="336">
            262 callgsubr
            97 callgsubr
            -436 return
          </CharString>
          <CharString index="337">
            724 5 callsubr
            -744 -59 744 hlineto
            return
          </CharString>
          <CharString index="338">
            vlineto
            -40 callsubr
            return
          </CharString>
          <CharString index="339">
            rmoveto
            137 90 59 return
          </CharString>
          <CharString index="340">
            rmoveto
            -107 callgsubr
            37 vlineto
            99 -7 53 2 vvcurveto
            164 -224 rlineto
            return
          </CharString>
          <CharString index="341">
            217 callgsubr
            393 120 vlineto
            return
          </CharString>
          <CharString index="342">
            -284 vlineto
            -103 callsubr
            return
          </CharString>
          <CharString index="343">
            hlineto
            -139 -188 rlineto
            return
          </CharString>
          <CharString index="344" raw="1">
            f71d159f 1d0b  
          </CharString>
          <CharString index="345">
            -78 197 callgsubr
            -240 -99 callsubr
            return
          </CharString>
          <CharString index="346">
            -49 callgsubr
            821 vlineto
            return
          </CharString>
          <CharString index="347">
            810 90 callsubr
            return
          </CharString>
          <CharString index="348">
            -90 10 -38 0 vhcurveto
            return
          </CharString>
          <CharString index="349">
            174 252 callgsubr
            return
          </CharString>
          <CharString index="350">
            -32 callgsubr
            endchar
          </CharString>
          <CharString index="351">
            -98 vlineto
            -53 22 return
          </CharString>
          <CharString index="352">
            529 rmoveto
            267 callsubr
            return
          </CharString>
          <CharString index="353">
            vlineto
            117 callsubr
            return
          </CharString>
          <CharString index="354">
            -88 callgsubr
            76 return
          </CharString>
          <CharString index="355">
            rmoveto
            -80 callgsubr
            return
          </CharString>
          <CharString index="356">
            266 -264 return
          </CharString>
          <CharString index="357">
            -78 197 callgsubr
            1068 212 rmoveto
            return
          </CharString>
          <CharString index="358">
            -50 callgsubr
            327 -46 callsubr
            return
          </CharString>
          <CharString index="359">
            vlineto
            -103 callsubr
            -315 -106 callsubr
            return
          </CharString>
          <CharString index="360">
            -266 55 242 rmoveto
            340 59 -340 hlineto
            endchar
          </CharString>
          <CharString index="361">
            276 callgsubr
            -451 hlineto
            -68 callsubr
            return
          </CharString>
          <CharString index="362">
            -106 callgsubr
            70 -93 callgsubr
            return
          </CharString>
          <CharString index="363">
            -88 callgsubr
            63 159 callgsubr
            return
          </CharString>
          <CharString index="364">
            rmoveto
            -105 callgsubr
            -70 -101 callsubr
            return
          </CharString>
          <CharString index="365">
            hlineto
            -107 callsubr
            492 return
          </CharString>
          <CharString index="366">
            -105 callgsubr
            -28 215 return
          </CharString>
          <CharString index="367">
            -284 -67 callsubr
            return
          </CharString>
          <CharString index="368">
            -77 callgsubr
            79 return
          </CharString>
          <CharString index="369">
            124 rmoveto
            -107 callgsubr
            return
          </CharString>
          <CharString index="370">
            rmoveto
            137 75 59 return
          </CharString>
          <CharString index="371">
            -21 171 callsubr
            return
          </CharString>
          <CharString index="372">
            278 callsubr
            -91 hlineto
            return
          </CharString>
          <CharString index="373" raw="1">
            201dea33 1d0b  
          </CharString>
          <CharString index="374">
            -80 callgsubr
            31 hlineto
            -57 callsubr
            return
          </CharString>
          <CharString index="375">
            -59 391 -78 -254 vlineto
            -103 callsubr
            return
          </CharString>
          <CharString index="376">
            hlineto
            -36 -20 -22 -35 hvcurveto
            -124 31 vlineto
            endchar
          </CharString>
          <CharString index="377">
            hlineto
            15 2 -3 -14 hvcurveto
            return
          </CharString>
          <CharString index="378">
            -426 240 426 return
          </CharString>
          <CharString index="379">
            hlineto
            56 13 30 48 hvcurveto
            return
          </CharString>
          <CharString index="380">
            rmoveto
            -41 callsubr
            return
          </CharString>
          <CharString index="381">
            hmoveto
            -206 57 vlineto
            107 132 rlineto
            74 vlineto
            return
          </CharString>
          <CharString index="382">
            669 -240 -669 vlineto
            return
          </CharString>
          <CharString index="383">
            -264 -109 vlineto
            return
          </CharString>
          <CharString index="384">
            25 26 -18 19 -26 -25 -19 -19 -26 vhcurveto
            return
          </CharString>
          <CharString index="385">
            -62 callsubr
            59 return
          </CharString>
          <CharString index="386">
            rmoveto
            248 126 -248 hlineto
            endchar
          </CharString>
          <CharString index="387">
            1 3 9 hvcurveto
            return
          </CharString>
        <CharString name=".notdef">
          40 160 hmoveto
          436 701 -436 hlineto
          81 -76 rmoveto
          275 -549 -275 hlineto
          endchar
        </CharString>
        <CharString name="A">
          54 298 182 -31 callgsubr
        </CharString>
        <CharString name="AE">
          389 363 182 rmoveto
          167 310 rlineto
          -310 vlineto
          254 -123 257 callgsubr
          -704 vlineto
          -357 -622 rlineto
          263 hlineto
          66 123 rlineto
          199 -123 546 59 hlineto
          endchar
        </CharString>
        <CharString name="Aacute">
          50 661 824 23 callsubr
          -187 -487 -31 callgsubr
        </CharString>
        <CharString name="Abreve">
          50 581 669 60 callgsubr
          112 -487 -31 callgsubr
        </CharString>
        <CharString name="Acircumflex">
          50 382 752 rmoveto
          37 callsubr
          -188 -163 rlineto
          222 hlineto
          -12 -486 -31 callgsubr
        </CharString>
        <CharString name="Adieresis">
          50 662 240 callsubr
          -319 141 90 callsubr
          -47 -487 -31 callgsubr
        </CharString>
        <CharString name="Agrave">
          50 476 669 115 callgsubr
          6 -487 -31 callgsubr
        </CharString>
        <CharString name="Amacron">
          50 664 727 220 callsubr
          -368 -487 -31 callgsubr
        </CharString>
        <CharString name="Aogonek">
          50 296 182 rmoveto
          86 295 83 -295 rlineto
          161 -389 85 callsubr
          90 9 hlineto
          -233 622 rlineto
          -300 hlineto
          -233 -622 rlineto
          243 hlineto
          36 123 rlineto
          203 hlineto
          35 -123 rlineto
          -31 -10 vlineto
          68 callgsubr
        </CharString>
        <CharString name="Aring">
          50 329 768 41 callsubr
          38 -487 -31 callgsubr
        </CharString>
        <CharString name="Atilde">
          50 279 725 rmoveto
          12 6 8 14 vhcurveto
          -11 callgsubr
          vlineto
          17 -488 -31 callgsubr
        </CharString>
        <CharString name="B">
          21 60 5 callsubr
          -622 543 vlineto
          53 26 26 53 hvcurveto
          155 216 callgsubr
          151 -46 callsubr
          -163 -541 rmoveto
          -15 -12 -7 -24 vhcurveto
          -90 223 95 -57 callgsubr
          121 vmoveto
          -44 callgsubr
          -95 222 95 -57 callgsubr
          endchar
        </CharString>
        <CharString name="C">
          -2 669 390 -9 callsubr
        </CharString>
        <CharString name="CR">
          -442 endchar
        </CharString>
        <CharString name="Cacute">
          -18 624 824 23 callsubr
          217 -279 -9 callsubr
        </CharString>
        <CharString name="Ccaron">
          -18 461 669 -13 callgsubr
          419 -279 -9 callsubr
        </CharString>
        <CharString name="Ccedilla">
          -18 240 147 callsubr
          423 435 -9 callsubr
        </CharString>
        <CharString name="D">
          23 430 90 153 callgsubr
        </CharString>
        <CharString name="Dcaron">
          30 475 669 -13 callgsubr
          182 -579 153 callgsubr
        </CharString>
        <CharString name="Dcroat">
          41 126 callgsubr
        </CharString>
        <CharString name="E">
          -75 324 59 rmoveto
          230 51 callsubr
          vlineto
          endchar
        </CharString>
        <CharString name="Eacute">
          -83 599 823 23 callsubr
          -101 -609 rmoveto
          230 51 callsubr
          vlineto
          endchar
        </CharString>
        <CharString name="Ecaron">
          -83 445 669 -13 callgsubr
          92 -380 rmoveto
          51 callsubr
          -292 hlineto
          endchar
        </CharString>
        <CharString name="Ecircumflex">
          -83 332 753 rmoveto
          37 callsubr
          -188 -163 rlineto
          222 hlineto
          62 -380 rmoveto
          51 callsubr
          -292 hlineto
          endchar
        </CharString>
        <CharString name="Edieresis">
          -11 609 240 callsubr
          -319 141 90 callsubr
          30 -610 rmoveto
          230 51 callsubr
          vlineto
          endchar
        </CharString>
        <CharString name="Edotaccent">
          -83 461 240 callsubr
          -141 -610 rmoveto
          230 51 callsubr
          vlineto
          endchar
        </CharString>
        <CharString name="Egrave">
          -83 434 668 115 callgsubr
          72 -609 rmoveto
          230 51 callsubr
          vlineto
          endchar
        </CharString>
        <CharString name="Emacron">
          -83 599 727 220 callsubr
          -279 -610 rmoveto
          230 51 callsubr
          vlineto
          endchar
        </CharString>
        <CharString name="Eogonek">
          -83 481 -207 85 callsubr
          149 -292 267 callgsubr
          -543 -622 316 233 callgsubr
          hlineto
          endchar
        </CharString>
        <CharString name="Eth">
          27 126 callgsubr
        </CharString>
        <CharString name="Euro">
          12 692 390 rmoveto
          153 -46 callsubr
          -456 -4 callgsubr
          -138 -62 -59 62 -69 -62 -59 62 -139 -67 callgsubr
          456 -50 callgsubr
          150 -254 -139 -27 callsubr
          -44 -60 callgsubr
          128 77 59 -77 69 77 59 -77 127 -48 callsubr
          44 -57 callgsubr
          -142 vlineto
          endchar
        </CharString>
        <CharString name="F">
          -88 603 280 callgsubr
          -543 -622 264 265 240 59 -240 239 vlineto
          endchar
        </CharString>
        <CharString name="G">
          4 670 409 21 callgsubr
        </CharString>
        <CharString name="Gbreve">
          -10 555 669 60 callgsubr
          506 -260 21 callgsubr
        </CharString>
        <CharString name="H">
          67 469 5 callsubr
          -281 -155 281 -254 -622 254 282 155 -282 254 622 vlineto
          endchar
        </CharString>
        <CharString name="I">
          -322 65 5 callsubr
          -622 264 622 vlineto
          endchar
        </CharString>
        <CharString name="Iacute">
          127 callsubr
          -219 46 72 callsubr
          endchar
        </CharString>
        <CharString name="Icircumflex">
          127 callsubr
          -427 47 rmoveto
          222 hlineto
          74 84 37 callsubr
          endchar
        </CharString>
        <CharString name="Idieresis">
          127 callsubr
          -408 187 177 callsubr
          80 hmoveto
          157 callsubr
        </CharString>
        <CharString name="Idotaccent">
          127 callsubr
          -254 188 rmoveto
          157 callsubr
        </CharString>
        <CharString name="Igrave">
          127 callsubr
          -174 202 145 callsubr
        </CharString>
        <CharString name="Imacron">
          127 callsubr
          -405 47 219 callsubr
          endchar
        </CharString>
        <CharString name="Iogonek">
          -356 189 -207 85 callsubr
          712 -264 -622 24 233 callgsubr
          hlineto
          endchar
        </CharString>
        <CharString name="J">
          -60 20 249 rmoveto
          -170 -67 callgsubr
          423 136 callsubr
          -254 161 callgsubr
          -11 -60 callgsubr
          159 vlineto
          endchar
        </CharString>
        <CharString name="K">
          43 476 5 callsubr
          224 callsubr
          -681 hmoveto
          -622 247 622 vlineto
          endchar
        </CharString>
        <CharString name="L">
          -118 314 59 185 callgsubr
        </CharString>
        <CharString name="Lacute">
          -132 458 823 23 callsubr
          30 -609 185 callgsubr
        </CharString>
        <CharString name="Lcaron">
          -132 288 669 -13 callgsubr
          239 -610 185 callgsubr
        </CharString>
        <CharString name="Lslash">
          -104 324 59 rmoveto
          252 vlineto
          148 49 rlineto
          72 vlineto
          -148 -49 rlineto
          239 -254 -323 vlineto
          -125 -42 rlineto
          -71 vlineto
          125 41 rlineto
          -227 528 59 vlineto
          endchar
        </CharString>
        <CharString name="M">
          236 551 135 rmoveto
          111 280 rlineto
          -415 230 622 -269 vlineto
          -147 -362 -146 362 rlineto
          -270 -622 230 413 hlineto
          112 -278 rlineto
          endchar
        </CharString>
        <CharString name="N">
          43 464 117 callgsubr
          endchar
        </CharString>
        <CharString name="NULL">
          -716 endchar
        </CharString>
        <CharString name="Nacute">
          36 276 669 72 callsubr
          48 -202 190 callgsubr
        </CharString>
        <CharString name="Ncaron">
          36 263 669 125 callgsubr
          385 -210 190 callgsubr
        </CharString>
        <CharString name="Ntilde">
          36 460 117 callgsubr
          -383 122 rmoveto
          -11 callgsubr
          55 vlineto
          12 6 8 14 vhcurveto
          endchar
        </CharString>
        <CharString name="O">
          17 678 543 36 callgsubr
        </CharString>
        <CharString name="OE">
          293 434 203 callsubr
          -63 -60 callgsubr
          442 -48 callsubr
          63 -57 callgsubr
          254 -473 257 callgsubr
          -463 -11 vlineto
          7 -19 -22 4 -28 hhcurveto
          -301 hlineto
          1 callgsubr
          301 hlineto
          28 22 4 7 19 hvcurveto
          -11 476 59 vlineto
          endchar
        </CharString>
        <CharString name="Oacute">
          12 277 669 72 callsubr
          262 -281 36 callgsubr
        </CharString>
        <CharString name="Ocircumflex">
          12 69 669 rmoveto
          222 hlineto
          74 84 37 callsubr
          418 -289 36 callgsubr
        </CharString>
        <CharString name="Odieresis">
          -11 675 543 -43 callgsubr
          -17 279 132 callgsubr
        </CharString>
        <CharString name="Ograve">
          12 675 543 -43 callgsubr
          -95 293 145 callsubr
        </CharString>
        <CharString name="Ohungarumlaut">
          -11 131 622 rmoveto
          1 callgsubr
          129 callgsubr
          464 -46 callsubr
          -175 -90 rmoveto
          -442 49 callgsubr
          442 60 callsubr
          -121 293 rmoveto
          177 callgsubr
          59 hmoveto
          176 callsubr
          endchar
        </CharString>
        <CharString name="Omacron">
          12 85 669 219 callsubr
          590 -184 36 callgsubr
        </CharString>
        <CharString name="Oslash">
          12 431 203 callsubr
          -73 -60 callgsubr
          78 vlineto
          135 161 rlineto
          -135 203 rmoveto
          26 5 5 26 vhcurveto
          73 -57 callgsubr
          -89 vlineto
          -135 -161 rlineto
          413 379 rmoveto
          -95 hlineto
          -33 -39 rlineto
          -450 -4 callgsubr
          -464 vlineto
          -28 7 -21 15 -13 vhcurveto
          -47 -56 rlineto
          95 hlineto
          33 39 rlineto
          441 -50 callgsubr
          464 vlineto
          25 -6 19 -11 13 vhcurveto
          endchar
        </CharString>
        <CharString name="Otilde">
          12 675 543 -43 callgsubr
          -128 212 rmoveto
          -11 callgsubr
          55 vlineto
          12 6 8 14 vhcurveto
          endchar
        </CharString>
        <CharString name="P">
          0 432 293 39 callgsubr
          -87 301 87 -57 callgsubr
          -372 90 rmoveto
          -622 254 203 293 vlineto
          53 26 26 53 hvcurveto
          261 103 callsubr
        </CharString>
        <CharString name="Q">
          20 304 532 rmoveto
          26 5 5 26 vhcurveto
          63 -57 callgsubr
          -442 -27 callsubr
          -63 -60 callgsubr
          392 -187 rmoveto
          -129 97 rlineto
          32 -50 callgsubr
          464 -46 callsubr
          -465 hlineto
          1 callgsubr
          168 hlineto
          114 -97 rlineto
          endchar
        </CharString>
        <CharString name="R">
          17 401 563 42 callgsubr
        </CharString>
        <CharString name="Racute">
          9 620 824 23 callsubr
          -45 -106 42 callgsubr
        </CharString>
        <CharString name="Rcaron">
          9 467 669 -13 callgsubr
          147 -106 42 callgsubr
        </CharString>
        <CharString name="S">
          -21 396 90 49 callsubr
        </CharString>
        <CharString name="Sacute">
          -24 267 669 72 callsubr
          -7 -734 49 callsubr
        </CharString>
        <CharString name="Scaron">
          -24 237 669 125 callgsubr
          347 -742 49 callsubr
        </CharString>
        <CharString name="T">
          -111 600 622 148 callgsubr
        </CharString>
        <CharString name="Tcaron">
          -107 409 669 -13 callgsubr
          410 -47 148 callgsubr
        </CharString>
        <CharString name="Thorn">
          0 425 192 39 callgsubr
          -77 300 77 -57 callgsubr
          -108 90 rmoveto
          102 -254 -622 254 102 283 vlineto
          53 26 26 53 hvcurveto
          260 103 callsubr
        </CharString>
        <CharString name="U">
          17 309 83 callgsubr
          endchar
        </CharString>
        <CharString name="Uacute">
          20 277 669 72 callsubr
          -103 -202 84 callgsubr
        </CharString>
        <CharString name="Ucircumflex">
          20 72 669 rmoveto
          222 hlineto
          74 84 37 callsubr
          50 -210 84 callgsubr
        </CharString>
        <CharString name="Udieresis">
          175 callgsubr
          465 136 callsubr
          vlineto
          -591 188 177 callsubr
          80 hmoveto
          157 callsubr
        </CharString>
        <CharString name="Ugrave">
          20 150 callsubr
          22 735 145 callsubr
        </CharString>
        <CharString name="Uhungarumlaut">
          -11 150 callsubr
          256 733 rmoveto
          176 callsubr
          -475 hmoveto
          177 callgsubr
          endchar
        </CharString>
        <CharString name="Umacron">
          20 150 callsubr
          -216 579 219 callsubr
          endchar
        </CharString>
        <CharString name="Uogonek">
          175 callgsubr
          113 165 callsubr
          112 136 callsubr
          vlineto
          endchar
        </CharString>
        <CharString name="Uring">
          20 574 779 110 callsubr
          -114 -146 84 callgsubr
        </CharString>
        <CharString name="V">
          24 479 5 callsubr
          -110 -456 -109 456 rlineto
          -256 hlineto
          223 -622 rlineto
          286 hlineto
          223 622 rlineto
          endchar
        </CharString>
        <CharString name="W">
          443 911 5 callsubr
          -91 -444 -121 444 rlineto
          -241 hlineto
          -121 -444 -76 444 rlineto
          -257 hlineto
          192 -622 rlineto
          283 hlineto
          100 371 100 -371 rlineto
          284 hlineto
          192 622 rlineto
          endchar
        </CharString>
        <CharString name="X">
          21 495 326 rmoveto
          207 296 rlineto
          -255 hlineto
          -86 -164 -85 164 rlineto
          -269 hlineto
          220 -316 -226 -306 rlineto
          252 hlineto
          108 179 107 -179 rlineto
          268 hlineto
          endchar
        </CharString>
        <CharString name="Y">
          22 735 622 119 callgsubr
        </CharString>
        <CharString name="Yacute">
          16 629 824 23 callsubr
          281 -47 119 callgsubr
        </CharString>
        <CharString name="Ydieresis">
          22 336 240 callsubr
          319 141 90 callsubr
          80 -47 119 callgsubr
        </CharString>
        <CharString name="Z">
          -58 628 622 206 callsubr
        </CharString>
        <CharString name="Zacute">
          -62 608 824 23 callsubr
          196 199 callsubr
        </CharString>
        <CharString name="Zcaron">
          -62 460 669 -13 callgsubr
          -196 -106 rmoveto
          125 callsubr
          59 -579 vlineto
          endchar
        </CharString>
        <CharString name="Zdotaccent">
          -62 469 240 callsubr
          157 199 callsubr
        </CharString>
        <CharString name="a">
          -34 321 59 -72 callgsubr
          -26 240 485 vlineto
          endchar
        </CharString>
        <CharString name="aacute">
          -41 615 687 23 callsubr
          -124 98 callgsubr
          -26 240 485 vlineto
          endchar
        </CharString>
        <CharString name="abreve">
          -41 538 532 60 callgsubr
          172 98 callgsubr
          -26 240 485 vlineto
          endchar
        </CharString>
        <CharString name="acircumflex">
          -41 339 616 rmoveto
          37 callsubr
          -188 -163 rlineto
          222 hlineto
          48 -473 rmoveto
          91 callsubr
          endchar
        </CharString>
        <CharString name="acute">
          -11 166 506 72 callsubr
          endchar
        </CharString>
        <CharString name="adieresis">
          -41 313 672 90 callsubr
          -472 vmoveto
          91 callsubr
          14 187 rmoveto
          157 callsubr
        </CharString>
        <CharString name="ae">
          322 619 278 rmoveto
          117 -48 callsubr
          59 -57 callgsubr
          -117 vlineto
          -420 -219 158 callsubr
          99 vlineto
          97 24 rlineto
          -123 -27 callsubr
          263 426 rmoveto
          -97 -10 -10 -26 -8 hvcurveto
          26 -9 -25 10 -96 hhcurveto
          -245 -4 callgsubr
          -107 240 98 128 callgsubr
          -117 vlineto
          -337 -78 rlineto
          -123 -67 callgsubr
          245 254 callgsubr
          276 -50 callgsubr
          83 -233 -72 -27 callsubr
          -59 -60 callgsubr
          129 354 129 callsubr
          endchar
        </CharString>
        <CharString name="agrave">
          -41 479 532 115 callgsubr
          20 98 callgsubr
          -26 240 485 vlineto
          endchar
        </CharString>
        <CharString name="amacron">
          -41 611 600 220 callsubr
          -298 -483 -72 callgsubr
          -26 240 485 vlineto
          endchar
        </CharString>
        <CharString name="ampersand">
          176 316 59 158 callsubr
          93 vlineto
          14 6 9 10 6 vhcurveto
          180 -153 rlineto
          -138 473 rmoveto
          26 5 5 26 vhcurveto
          41 -57 callgsubr
          -119 vlineto
          -22 -18 -11 -37 -14 vhcurveto
          -38 34 -10 18 34 vvcurveto
          535 -497 rmoveto
          -69 58 rlineto
          28 16 15 29 41 vvcurveto
          144 -195 -102 vlineto
          -169 142 42 16 rlineto
          97 36 59 29 77 vvcurveto
          102 -46 callsubr
          -425 -4 callgsubr
          -94 vlineto
          -63 26 -26 71 -61 vhcurveto
          -22 -8 rlineto
          -100 -35 -33 -24 -66 vvcurveto
          -87 -67 callgsubr
          426 hlineto
          53 -45 rlineto
          endchar
        </CharString>
        <CharString name="aogonek">
          -41 313 59 -42 callgsubr
          147 -266 229 callgsubr
          -26 hlineto
          -48 callgsubr
          -57 -10 vlineto
          68 callgsubr
        </CharString>
        <CharString name="approxequal">
          112 316 412 rmoveto
          64 callgsubr
          -220 vmoveto
          64 callgsubr
          endchar
        </CharString>
        <CharString name="aring">
          -41 284 632 41 callsubr
          100 -474 -72 callgsubr
          -26 240 485 vlineto
          endchar
        </CharString>
        <CharString name="asciicircum">
          -58 186 668 rmoveto
          -183 -340 rlineto
          216 hlineto
          109 214 110 -214 rlineto
          217 hlineto
          -183 340 rlineto
          endchar
        </CharString>
        <CharString name="asciitilde">
          102 311 252 rmoveto
          64 callgsubr
          endchar
        </CharString>
        <CharString name="asterisk">
          -94 229 669 rmoveto
          -59 vlineto
          -34 8 -34 11 -30 vhcurveto
          -26 22 -31 21 -33 11 -56 18 rcurveline
          -54 -166 56 -18 rlineto
          -11 32 36 -2 32 hhcurveto
          -29 -17 -30 -23 -21 -28 -35 -48 rcurveline
          142 -102 34 47 20 28 14 33 9 30 rlinecurve
          7 -32 13 -36 20 -29 35 -48 rcurveline
          141 104 -34 47 -20 27 -27 23 -26 18 rlinecurve
          33 -3 37 1 34 11 57 18 rcurveline
          -56 166 -55 -18 -32 -11 -30 -18 -25 -19 rlinecurve
          13 31 10 35 36 vvcurveto
          59 vlineto
          endchar
        </CharString>
        <CharString name="at">
          471 411 426 rmoveto
          -40 -20 -20 -40 hvcurveto
          -228 vlineto
          -40 20 -20 40 vhcurveto
          185 hlineto
          27 13 8 15 6 hvcurveto
          -42 430 vlineto
          40 20 20 40 hvcurveto
          384 vlineto
          40 -20 20 -40 vhcurveto
          -952 hlineto
          -40 -20 -20 -40 hvcurveto
          -513 vlineto
          -40 20 -20 40 vhcurveto
          719 59 -564 hlineto
          -20 -3 3 20 hvcurveto
          469 vlineto
          20 3 3 20 vhcurveto
          642 hlineto
          20 3 -3 -20 hvcurveto
          -340 vlineto
          -20 -3 -3 -20 vhcurveto
          -85 308 -192 -20 hlineto
          13 -7 -13 7 -24 hhcurveto
          -53 -82 rmoveto
          19 3 4 20 vhcurveto
          45 hlineto
          18 9 -5 -14 2 hvcurveto
          -193 vlineto
          -13 -2 -9 -5 -18 hhcurveto
          -45 hlineto
          -20 -3 3 20 hvcurveto
          endchar
        </CharString>
        <CharString name="atilde">
          -41 249 587 rmoveto
          12 6 8 14 vhcurveto
          -11 callgsubr
          vlineto
          64 98 callgsubr
          -26 240 485 vlineto
          endchar
        </CharString>
        <CharString name="b">
          -34 392 203 callsubr
          -28 hlineto
          -26 -12 9 20 hvcurveto
          309 vlineto
          21 12 -18 callgsubr
          28 -57 callgsubr
          -39 90 rmoveto
          -33 -16 -9 -17 -9 hvcurveto
          210 -240 -669 240 26 201 callsubr
          327 103 callsubr
        </CharString>
        <CharString name="backslash">
          -172 -60 699 rmoveto
          431 -835 rlineto
          203 hlineto
          -431 835 rlineto
          endchar
        </CharString>
        <CharString name="bar">
          -367 65 807 rmoveto
          -994 219 994 vlineto
          endchar
        </CharString>
        <CharString name="braceleft">
          -271 378 539 rmoveto
          72 8 49 60 vhcurveto
          13 59 -44 hlineto
          -189 -102 -44 -194 hvcurveto
          -119 vlineto
          -55 -25 -25 -70 vhcurveto
          -9 -59 9 hlineto
          70 25 -24 -54 hvcurveto
          -128 vlineto
          -194 102 -44 189 vhcurveto
          44 59 -13 hlineto
          -60 -8 49 72 hvcurveto
          162 vlineto
          70 -34 56 -68 3 vhcurveto
          68 2 34 56 71 vvcurveto
          endchar
        </CharString>
        <CharString name="braceright">
          -251 87 379 rmoveto
          -71 34 -56 68 -2 vhcurveto
          -68 -3 -34 -56 -70 vvcurveto
          -162 vlineto
          -72 -8 -49 -60 vhcurveto
          -13 -59 44 hlineto
          189 102 44 194 hvcurveto
          128 vlineto
          54 25 24 70 vhcurveto
          9 59 -9 hlineto
          -70 -25 25 55 hvcurveto
          119 vlineto
          194 -102 44 -189 vhcurveto
          -44 -59 13 hlineto
          60 8 -49 -72 hvcurveto
          endchar
        </CharString>
        <CharString name="bracketleft">
          -317 432 660 rmoveto
          59 -377 -939 377 59 -123 821 vlineto
          endchar
        </CharString>
        <CharString name="bracketright">
          -317 344 719 rmoveto
          -377 -59 123 -821 -123 -59 377 hlineto
          endchar
        </CharString>
        <CharString name="breve">
          -11 419 661 rmoveto
          -55 -27 callsubr
          -71 204 callsubr
          -211 -66 -67 callgsubr
          397 187 callgsubr
          vlineto
          endchar
        </CharString>
        <CharString name="brokenbar">
          -367 65 254 rmoveto
          -441 219 441 vlineto
          112 vmoveto
          441 -219 -441 vlineto
          endchar
        </CharString>
        <CharString name="bullet">
          -158 279 454 rmoveto
          -114 -95 -64 -79 -78 95 -65 114 114 95 65 78 79 -95 64 -114 hvcurveto
          endchar
        </CharString>
        <CharString name="c">
          -65 616 303 30 callgsubr
        </CharString>
        <CharString name="cacute">
          -80 600 687 23 callsubr
          186 -229 30 callgsubr
        </CharString>
        <CharString name="caron">
          -11 244 496 125 callgsubr
          endchar
        </CharString>
        <CharString name="ccaron">
          -80 427 532 -13 callgsubr
          -89 -47 2 callgsubr
          408 17 callgsubr
          232 103 103 callsubr
        </CharString>
        <CharString name="ccedilla">
          -80 220 147 callsubr
          388 348 30 callgsubr
        </CharString>
        <CharString name="cedilla">
          -11 281 147 callsubr
          endchar
        </CharString>
        <CharString name="cent">
          -80 608 303 rmoveto
          248 callgsubr
          -77 78 -247 -78 -84 140 callgsubr
          84 -80 247 80 77 40 callsubr
        </CharString>
        <CharString name="circumflex">
          -11 56 506 rmoveto
          222 hlineto
          74 84 37 callsubr
          endchar
        </CharString>
        <CharString name="colon">
          -352 55 336 rmoveto
          158 callgsubr
          -485 vmoveto
          158 callgsubr
          endchar
        </CharString>
        <CharString name="comma">
          -357 55 -141 rmoveto
          84 hlineto
          170 213 rlineto
          97 -254 vlineto
          endchar
        </CharString>
        <CharString name="commaaccent">
          -11 234 -290 146 callgsubr
        </CharString>
        <CharString name="copyright">
          373 1046 338 rmoveto
          175 -75 109 -289 vhcurveto
          -276 hlineto
          -289 -75 -109 -175 hvcurveto
          -53 vlineto
          -176 75 -109 289 vhcurveto
          276 hlineto
          289 75 109 176 hvcurveto
          -593 -226 rmoveto
          -154 -58 54 154 hvcurveto
          88 vlineto
          154 58 54 154 vhcurveto
          183 hlineto
          154 58 -54 -154 hvcurveto
          -88 vlineto
          -154 -58 -54 -154 vhcurveto
          -54 181 39 callgsubr
          -11 -60 callgsubr
          143 -48 callsubr
          11 -57 callgsubr
          -44 165 55 -46 callsubr
          -245 -4 callgsubr
          -165 -67 callgsubr
          245 -50 callgsubr
          56 -165 vlineto
          endchar
        </CharString>
        <CharString name="currency">
          119 412 165 rmoveto
          -94 -36 10 96 hvcurveto
          30 vlineto
          96 36 33 94 vhcurveto
          9 hlineto
          93 37 -33 -96 hvcurveto
          -30 vlineto
          -96 -37 -10 -93 vhcurveto
          305 149 rmoveto
          29 -3 26 -9 23 vhcurveto
          66 64 -122 125 -97 -95 rlineto
          2 -18 -20 1 -22 hhcurveto
          -170 hlineto
          -21 -19 -1 -2 -17 hvcurveto
          -97 95 -122 -125 64 -63 rlineto
          -9 -23 -3 -26 -30 vvcurveto
          -32 vlineto
          -31 4 -27 9 -24 vhcurveto
          -65 -63 122 -125 99 97 rlineto
          -2 16 19 -1 20 hhcurveto
          170 hlineto
          21 19 1 2 18 hvcurveto
          99 -97 122 125 -67 65 rlineto
          9 23 4 27 30 vvcurveto
          endchar
        </CharString>
        <CharString name="d">
          -34 321 59 -27 callgsubr
          610 rmoveto
          -210 181 callgsubr
          -26 240 669 vlineto
          endchar
        </CharString>
        <CharString name="dagger">
          -76 626 475 rmoveto
          -176 147 -254 -147 -182 -59 182 -557 254 557 176 hlineto
          endchar
        </CharString>
        <CharString name="daggerdbl">
          -34 646 376 rmoveto
          59 -176 187 -254 -187 -182 -59 182 -262 -182 -59 182 -196 254 196 176 59 -176 262 vlineto
          endchar
        </CharString>
        <CharString name="danda">
          -302 120 hmoveto
          254 622 -254 hlineto
          endchar
        </CharString>
        <CharString name="dcaron">
          17 379 459 rmoveto
          -48 callgsubr
          -26 240 669 -240 vlineto
          296 274 callsubr
          -526 -610 -42 callgsubr
          endchar
        </CharString>
        <CharString name="dcroat">
          -34 320 59 -42 callgsubr
          349 540 rmoveto
          -71 70 -240 -70 -84 -59 84 -81 hlineto
          -48 callgsubr
          -26 240 540 71 vlineto
          endchar
        </CharString>
        <CharString name="degree">
          -34 626 543 rmoveto
          53 -26 26 -53 vhcurveto
          -410 -4 callgsubr
          -170 -67 callgsubr
          410 -50 callgsubr
          -229 11 39 callgsubr
          -46 -60 callgsubr
          148 -48 callsubr
          46 -57 callgsubr
          endchar
        </CharString>
        <CharString name="dieresis">
          -11 393 658 132 callgsubr
        </CharString>
        <CharString name="divide">
          36 31 239 rmoveto
          247 callgsubr
          206 140 rmoveto
          -101 250 101 vlineto
          -250 -320 rmoveto
          -101 250 101 vlineto
          endchar
        </CharString>
        <CharString name="dollar">
          -21 320 343 158 callsubr
          158 -48 callsubr
          49 -57 callgsubr
          -105 247 116 -46 callsubr
          -99 92 -247 -92 -101 115 callsubr
          251 -57 callgsubr
          -163 -27 callsubr
          -49 -60 callgsubr
          105 -247 -116 -67 callgsubr
          98 -90 247 90 102 -50 callgsubr
          185 103 callsubr
        </CharString>
        <CharString name="dotaccent">
          -11 238 515 rmoveto
          239 141 -239 hlineto
          endchar
        </CharString>
        <CharString name="dotlessi">
          -364 55 485 rmoveto
          -485 240 485 vlineto
          endchar
        </CharString>
        <CharString name="dottedcircle">
          -56 139 517 rmoveto
          -26 18 -19 26 26 18 19 26 25 -18 19 -26 -26 -18 -19 -25 vhcurveto
          -82 -110 rmoveto
          -25 20 -19 26 24 20 19 25 25 -20 19 -24 -26 -20 -19 -25 vhcurveto
          -13 -126 rmoveto
          -25 19 -18 25 26 18 18 277 callsubr
          52 -116 rmoveto
          -26 18 -18 26 25 19 18 26 25 -19 19 -25 -26 -18 -19 -25 vhcurveto
          101 -75 rmoveto
          -26 19 -20 26 25 19 20 26 24 -19 20 -25 -26 -19 -20 -24 vhcurveto
          127 -16 rmoveto
          -26 18 -18 26 26 19 18 26 26 -19 18 -26 -26 -18 -18 -26 vhcurveto
          121 53 rmoveto
          -26 19 -18 25 25 20 18 26 25 -20 19 -25 -25 -19 -19 -25 vhcurveto
          73 98 rmoveto
          -25 19 -19 26 24 19 19 25 26 -19 19 -24 -26 -19 -19 -26 vhcurveto
          10 134 rmoveto
          -26 18 -18 26 25 19 18 26 26 -19 18 -25 -26 -18 -18 -26 vhcurveto
          -50 118 rmoveto
          -25 19 -19 25 26 18 19 277 callsubr
          -95 68 rmoveto
          -24 19 -20 26 25 18 20 24 26 -18 19 -25 -26 -19 -19 -26 vhcurveto
          -126 15 rmoveto
          -26 18 -18 26 26 18 18 26 26 -18 18 -26 -26 -18 -18 -26 vhcurveto
          endchar
        </CharString>
        <CharString name="doubledanda">
          61 120 hmoveto
          254 622 -254 hlineto
          364 -622 rmoveto
          253 622 -253 hlineto
          endchar
        </CharString>
        <CharString name="dvA">
          372 1108 276 callgsubr
          -70 callsubr
          75 hlineto
          endchar
        </CharString>
        <CharString name="dvAA">
          746 1482 5 callsubr
          -713 -70 callsubr
          110 223 callgsubr
        </CharString>
        <CharString name="dvAI">
          44 780 5 callsubr
          -68 170 callgsubr
          -483 35 callgsubr
        </CharString>
        <CharString name="dvAU">
          746 1482 5 callsubr
          -75 hlineto
          -38 230 rlineto
          -165 99 callsubr
          -372 -70 callsubr
          110 223 callgsubr
        </CharString>
        <CharString name="dvAbbreviationsign">
          -54 374 220 rmoveto
          -105 callgsubr
          86 callgsubr
          122 -106 callgsubr
          27 -93 callgsubr
          -244 90 rmoveto
          -103 callsubr
          -152 -106 callsubr
          393 -102 callsubr
          152 -89 callgsubr
          endchar
        </CharString>
        <CharString name="dvAcandra">
          372 1108 276 callgsubr
          -70 callsubr
          75 hlineto
          -133 289 93 callsubr
        </CharString>
        <CharString name="dvAnusvara">
          -716 -314 687 243 callsubr
        </CharString>
        <CharString name="dvAnusvara.amI">
          -716 55 671 243 callsubr
        </CharString>
        <CharString name="dvAvagraha">
          -8 663 280 callgsubr
          -542 vlineto
          -103 callsubr
          -149 -106 callsubr
          90 callgsubr
          -196 11 callgsubr
          75 -264 -92 28 callgsubr
          232 -89 callgsubr
          -244 -51 callsubr
          113 -88 callgsubr
          endchar
        </CharString>
        <CharString name="dvB">
          -273 463 5 callsubr
          -483 -59 483 hlineto
          -154 -306 rmoveto
          66 -8 49 0 vhcurveto
          191 -235 rlineto
          -149 -101 callsubr
          191 -33 rmoveto
          11 46 -196 243 -30 callgsubr
          434 59 hlineto
          endchar
        </CharString>
        <CharString name="dvBA">
          96 343 137 44 callgsubr
          -852 -59 513 -240 hlineto
          138 callgsubr
        </CharString>
        <CharString name="dvBH">
          23 132 callsubr
          426 59 rmoveto
          -162 174 hlineto
          -39 callsubr
          162 vlineto
          endchar
        </CharString>
        <CharString name="dvBHA">
          377 132 callsubr
          708 308 rmoveto
          -339 -249 -105 174 hlineto
          -39 callsubr
          105 -314 -36 callsubr
        </CharString>
        <CharString name="dvBH_LA">
          1101 132 callsubr
          1432 308 rmoveto
          -1077 -59 738 -78 -161 hlineto
          -77 callsubr
          -37 -91 108 callsubr
          91 -239 -84 callgsubr
        </CharString>
        <CharString name="dvBH_NA">
          1073 1128 -71 callsubr
          -723 -256 32 callsubr
          1404 308 rmoveto
          -1105 -59 766 -78 -636 -67 callsubr
          -37 -90 108 callsubr
          90 -161 87 callsubr
        </CharString>
        <CharString name="dvBH_R">
          8 623 -120 rmoveto
          393 304 rlineto
          181 vlineto
          -700 -485 rlineto
          84 351 78 callsubr
          254 59 rmoveto
          121 vlineto
          36 callsubr
          -53 22 -22 53 vhcurveto
          464 hlineto
          53 22 22 53 hvcurveto
          153 362 59 vlineto
          endchar
        </CharString>
        <CharString name="dvBH_RA">
          355 400 231 78 callsubr
          691 255 rmoveto
          -322 -196 -115 121 hlineto
          36 callsubr
          -53 22 -22 53 vhcurveto
          151 callgsubr
        </CharString>
        <CharString name="dvBH_R_YA">
          983 1380 -97 callsubr
          -980 -332 78 callsubr
          1319 255 rmoveto
          -1009 88 callgsubr
          -141 hlineto
          39 -6 -26 19 -45 hhcurveto
          -100 121 hlineto
          36 callsubr
          -53 22 -22 53 vhcurveto
          464 hlineto
          53 22 22 53 hvcurveto
          153 80 vlineto
          26 5 -5 -26 hvcurveto
          -145 vlineto
          -449 -311 rlineto
          307 hlineto
          256 198 rlineto
          469 -103 callgsubr
        </CharString>
        <CharString name="dvBH_VA">
          740 132 callsubr
          1071 308 84 callsubr
          -37 -89 174 vlineto
          53 -22 22 -53 vhcurveto
          -464 hlineto
          -53 -22 -22 -53 hvcurveto
          -106 264 89 98 callsubr
        </CharString>
        <CharString name="dvBH_YA">
          967 1364 171 35 callsubr
          1298 308 124 callgsubr
          -287 174 hlineto
          -39 callsubr
          80 -161 -106 callsubr
          -91 callsubr
        </CharString>
        <CharString name="dvB_BA">
          544 791 205 callsubr
          -564 hmoveto
          -44 callsubr
          821 485 rmoveto
          -1300 -59 961 193 callsubr
          -323 135 callgsubr
          341 -103 callgsubr
        </CharString>
        <CharString name="dvB_BHA">
          826 172 callgsubr
          411 -393 32 callsubr
          -511 -177 -43 callsubr
          1103 485 rmoveto
          -339 -249 -105 174 hlineto
          53 -22 22 -53 vhcurveto
          -464 hlineto
          -53 -22 -22 -53 hvcurveto
          -106 264 89 146 callsubr
          -94 30 callsubr
          24 17 5 10 11 hvcurveto
          -10 22 callsubr
          -38 callgsubr
          161 105 -314 -36 callsubr
        </CharString>
        <CharString name="dvB_BH_RA">
          807 172 callgsubr
          409 -332 78 callsubr
          -509 -230 120 callsubr
          -322 -196 -115 121 hlineto
          36 callsubr
          -8 vlineto
          -177 220 -30 callgsubr
          356 hlineto
          46 29 20 41 4 hvcurveto
          4 4 0 4 hhcurveto
          151 callgsubr
        </CharString>
        <CharString name="dvB_DA">
          446 343 137 -43 callsubr
          648 289 263 callsubr
          -1202 -59 863 -78 -274 vlineto
          -103 callsubr
          -206 30 callsubr
          24 17 5 10 11 hvcurveto
          -10 22 callsubr
          252 -104 callgsubr
          249 callsubr
          -95 vlineto
          -68 callsubr
          -27 -92 callsubr
          endchar
        </CharString>
        <CharString name="dvB_DHA">
          704 172 callgsubr
          -100 -426 -43 callsubr
          981 485 rmoveto
          -339 -451 hlineto
          -68 callsubr
          -275 -83 callgsubr
          -47 30 callsubr
          24 17 5 10 11 hvcurveto
          -10 22 callsubr
          500 -103 callgsubr
        </CharString>
        <CharString name="dvB_DH_VA">
          1079 172 callgsubr
          -100 -426 -43 callsubr
          1356 485 rmoveto
          -719 -59 380 -3 callgsubr
          -272 -83 callgsubr
          -46 vlineto
          -178 221 -30 callgsubr
          343 -68 callgsubr
          499 -22 callgsubr
        </CharString>
        <CharString name="dvB_JA">
          807 343 137 120 callsubr
          -1563 -59 1224 -78 -342 -315 hlineto
          27 callsubr
          88 -23 callgsubr
          vlineto
          endchar
        </CharString>
        <CharString name="dvB_JHA">
          837 1234 331 rmoveto
          -438 51 callgsubr
          124 hlineto
          -891 -426 -43 callsubr
          1114 485 rmoveto
          -1593 -59 866 -78 -273 -67 callsubr
          173 callsubr
          239 74 callsubr
          -46 53 -261 hlineto
          -190 236 58 callsubr
          2 8 hvcurveto
          -81 273 78 269 vlineto
          105 callsubr
          125 -272 119 callsubr
        </CharString>
        <CharString name="dvB_J_YA">
          1424 343 137 -43 callsubr
          747 289 rmoveto
          59 -344 -315 vlineto
          27 callsubr
          vlineto
          705 -255 -105 callsubr
          339 59 rmoveto
          -2180 -59 1433 hlineto
          -98 callsubr
        </CharString>
        <CharString name="dvB_JxA">
          807 678 26 callgsubr
          -335 124 120 callsubr
          -1563 -59 1224 -78 -342 -315 hlineto
          27 callsubr
          88 -23 callgsubr
          vlineto
          endchar
        </CharString>
        <CharString name="dvB_LA">
          835 343 137 -43 callsubr
          1112 485 rmoveto
          -1591 -59 1252 -78 -161 hlineto
          -77 callsubr
          -206 30 callsubr
          12 10 280 callsubr
          -7 -84 callgsubr
        </CharString>
        <CharString name="dvB_L_YA">
          1448 343 137 -43 callsubr
          771 348 rmoveto
          -159 hlineto
          -77 callsubr
          -206 30 callsubr
          12 10 280 callsubr
          -7 8 callgsubr
          -2204 -59 1457 hlineto
          -98 callsubr
        </CharString>
        <CharString name="dvB_NA">
          807 862 -71 callsubr
          -519 -289 120 callsubr
          -1563 -59 1224 -78 -636 135 callgsubr
          -33 callsubr
          273 88 -23 callgsubr
          vlineto
          endchar
        </CharString>
        <CharString name="dvB_R">
          -268 468 5 callsubr
          -488 -59 488 hlineto
          26 -406 rmoveto
          -151 -101 callsubr
          90 vlineto
          66 -8 49 0 vhcurveto
          257 -238 rmoveto
          -29 hlineto
          1 20 -199 249 rlineto
          112 59 -323 250 callgsubr
          104 hlineto
          -171 -188 rlineto
          269 hlineto
          177 208 rlineto
          26 hlineto
          1 -1 rlineto
          1 32 vlineto
          endchar
        </CharString>
        <CharString name="dvB_RA">
          96 343 157 rmoveto
          -107 callgsubr
          89 10 callsubr
          -229 149 callsubr
          373 465 rmoveto
          -852 -59 513 -195 hlineto
          -105 10 -50 0 vhcurveto
          -172 213 rlineto
          112 59 -323 hlineto
          -53 -22 -22 -53 hvcurveto
          175 callsubr
        </CharString>
        <CharString name="dvB_SA">
          824 1221 339 rmoveto
          -103 hlineto
          -76 callgsubr
          121 hlineto
          -878 -426 -43 callsubr
          1101 485 rmoveto
          -1580 -59 841 hlineto
          -56 callgsubr
          137 -264 -269 hlineto
          -177 219 -30 callgsubr
          343 hlineto
          11 10 1 2 8 hvcurveto
          -6 vlineto
          -100 callgsubr
          465 -280 -36 callsubr
        </CharString>
        <CharString name="dvB_SHA">
          821 172 callgsubr
          -100 -426 -43 callsubr
          114 485 53 callgsubr
          -168 hlineto
          -178 221 58 callsubr
          2 8 hvcurveto
          -6 -2 callgsubr
        </CharString>
        <CharString name="dvB_TA">
          501 343 137 -43 callsubr
          778 485 rmoveto
          -1257 -59 921 -78 -332 -67 callsubr
          -206 30 callsubr
          12 10 280 callsubr
          -7 -74 callgsubr
          109 7 callgsubr
          hlineto
          endchar
        </CharString>
        <CharString name="dvB_VA">
          475 343 137 -43 callsubr
          752 485 rmoveto
          -1231 -59 892 -392 hlineto
          -26 -8 -8 -26 vhcurveto
          -47 hlineto
          -26 -8 9 24 hvcurveto
          223 vlineto
          24 8 9 26 vhcurveto
          31 59 -254 135 callgsubr
          272 -98 callgsubr
          75 vlineto
          endchar
        </CharString>
        <CharString name="dvB_YA">
          711 1108 -97 callsubr
          -765 -426 -43 callsubr
          988 485 rmoveto
          -1467 -59 720 188 callgsubr
          -53 -22 -22 -53 hvcurveto
          -257 vlineto
          -53 22 -22 53 vhcurveto
          343 -52 callgsubr
        </CharString>
        <CharString name="dvC">
          -255 481 5 callsubr
          -501 -59 501 hlineto
          -94 -426 rmoveto
          -17 callsubr
          434 59 hlineto
          endchar
        </CharString>
        <CharString name="dvCA">
          131 867 5 callsubr
          -887 -59 548 -392 hlineto
          -26 -8 -8 -26 vhcurveto
          -107 hlineto
          -17 callsubr
          332 -103 callgsubr
        </CharString>
        <CharString name="dvCH">
          319 1055 280 callgsubr
          -1075 -59 94 vlineto
          41 callgsubr
          53 -22 22 -53 vhcurveto
          -393 -61 callgsubr
          endchar
        </CharString>
        <CharString name="dvCHA">
          324 601 485 rmoveto
          -74 -61 callgsubr
          248 hlineto
          459 hmoveto
          59 -1080 -59 94 vlineto
          41 callgsubr
          53 -22 22 -53 vhcurveto
          -75 78 hlineto
          endchar
        </CharString>
        <CharString name="dvCH_RA">
          324 601 485 rmoveto
          -74 -67 callsubr
          -152 -106 callsubr
          202 59 -14 -101 callsubr
          118 -106 callgsubr
          17 -93 callgsubr
          -281 65 callgsubr
          134 -1 callsubr
          248 hlineto
          459 hmoveto
          59 -1080 -59 94 vlineto
          97 callsubr
          53 -22 22 -53 vhcurveto
          -75 78 hlineto
          endchar
        </CharString>
        <CharString name="dvCH_R_YA">
          1264 1661 -10 callgsubr
          -949 -67 callsubr
          -152 -106 callsubr
          202 59 -14 -101 callsubr
          118 -106 callgsubr
          17 -93 callgsubr
          -281 65 callgsubr
          134 -1 callsubr
          1308 hlineto
          26 callsubr
          -2020 -59 94 hlineto
          97 callsubr
          6 211 callgsubr
          259 -16 callsubr
        </CharString>
        <CharString name="dvCH_YA">
          1264 1661 -10 callgsubr
          -537 -1 hlineto
          1 -6 -6 0 -7 hhcurveto
          -393 -61 callgsubr
          1308 hlineto
          26 callsubr
          -2020 -59 94 hlineto
          41 callgsubr
          6 211 callgsubr
          259 -16 callsubr
        </CharString>
        <CharString name="dvC_CA">
          604 1340 5 callsubr
          -1360 -59 1001 134 callsubr
          -416 -59 83 hlineto
          29 callsubr
          -215 -99 callsubr
          -121 -101 callsubr
          223 246 callsubr
          50 59 -426 -59 103 hlineto
          50 callsubr
          348 -68 callgsubr
          166 callgsubr
          95 vlineto
          endchar
        </CharString>
        <CharString name="dvC_CHA">
          820 1097 485 rmoveto
          -74 -61 callgsubr
          248 hlineto
          459 hmoveto
          59 -1576 -59 590 152 callsubr
          -61 vlineto
          -24 -8 -9 -26 vhcurveto
          -130 hlineto
          -17 callsubr
          357 hlineto
          12 225 callsubr
          790 -102 callsubr
          335 -89 callgsubr
          -75 78 hlineto
          endchar
        </CharString>
        <CharString name="dvC_CH_VA">
          810 1084 485 rmoveto
          -74 85 callgsubr
          -281 -99 callsubr
          -389 -51 callsubr
          133 -1 callsubr
          258 hlineto
          10 -691 24 callgsubr
          -110 -101 callsubr
          115 -88 callgsubr
          144 hlineto
          452 543 rmoveto
          59 -1566 -59 567 152 callsubr
          -61 -99 callsubr
          -107 hlineto
          -17 callsubr
          334 hlineto
          12 10 280 callsubr
          -44 3 23 -18 48 hhcurveto
          86 hlineto
          29 callsubr
          -125 -106 callsubr
          317 235 callgsubr
          224 290 85 -71 callgsubr
          315 -89 callgsubr
          -75 78 hlineto
          endchar
        </CharString>
        <CharString name="dvC_MA">
          853 1253 -63 callgsubr
          708 196 rmoveto
          -1609 -59 901 238 callsubr
          -100 hlineto
          -17 callsubr
          327 31 callsubr
        </CharString>
        <CharString name="dvC_NA">
          835 890 10 callgsubr
          -1591 -59 1252 -78 193 callgsubr
          -100 hlineto
          -17 callsubr
          327 0 callsubr
        </CharString>
        <CharString name="dvC_R">
          -233 -20 563 rmoveto
          523 59 -523 hlineto
          25 -196 rmoveto
          205 callgsubr
          174 204 rlineto
          44 43 -189 229 callsubr
          hlineto
          endchar
        </CharString>
        <CharString name="dvC_RA">
          131 867 5 callsubr
          -887 -59 548 -372 hlineto
          -68 callsubr
          -107 229 callsubr
          -59 205 callgsubr
          170 199 rlineto
          -109 -36 callsubr
        </CharString>
        <CharString name="dvC_YA">
          729 1126 -54 callsubr
          -1485 -59 738 15 callgsubr
          -90 hlineto
          -17 callsubr
          317 -52 callgsubr
        </CharString>
        <CharString name="dvCandrabindu">
          -716 -435 685 rmoveto
          496 272 callsubr
          89 -211 209 callsubr
          189 130 rmoveto
          118 102 -118 hlineto
          endchar
        </CharString>
        <CharString name="dvD">
          -3 404 hmoveto
          264 249 callsubr
          -95 hlineto
          -68 callsubr
          -27 -92 callsubr
          315 137 75 59 -753 270 callgsubr
          -30 callsubr
          252 hlineto
          14 11 3 6 7 hvcurveto
          264 -147 rmoveto
          -264 hlineto
          147 -202 rlineto
          264 hlineto
          endchar
        </CharString>
        <CharString name="dvDA">
          -3 658 426 263 callsubr
          -753 270 callgsubr
          vlineto
          -53 -22 -22 -53 hvcurveto
          25 callsubr
        </CharString>
        <CharString name="dvDA_mvR">
          0 658 103 callgsubr
          78 59 -756 270 callgsubr
          vlineto
          -54 callgsubr
          252 -100 callsubr
          -80 vlineto
          -103 callsubr
          -120 -106 callsubr
          344 59 -136 -101 callsubr
          86 -106 callgsubr
          136 325 -264 -95 hlineto
          -68 callsubr
          -27 -92 callsubr
          endchar
        </CharString>
        <CharString name="dvDD">
          -17 215 -60 38 callgsubr
          156 486 rmoveto
          137 84 59 -739 -59 391 -78 -254 vlineto
          -53 -22 -22 -53 hvcurveto
          -83 vlineto
          -53 22 -22 53 vhcurveto
          -64 callsubr
          endchar
        </CharString>
        <CharString name="dvDDA">
          -17 635 174 callgsubr
          -739 -59 391 -78 -254 vlineto
          -53 -22 -22 -53 hvcurveto
          -83 vlineto
          -53 22 -22 53 vhcurveto
          -64 callsubr
          endchar
        </CharString>
        <CharString name="dvDDH">
          21 232 -60 38 callgsubr
          150 486 rmoveto
          137 111 59 -777 -59 402 -78 -259 vlineto
          -19 callgsubr
          endchar
        </CharString>
        <CharString name="dvDDHA">
          21 646 103 callgsubr
          111 59 -777 -59 402 -78 -259 vlineto
          -19 callgsubr
          endchar
        </CharString>
        <CharString name="dvDDH_DDHA">
          73 693 103 callgsubr
          116 59 -829 -59 449 -78 -299 vlineto
          -103 callsubr
          -235 -75 callsubr
          -217 -106 callsubr
          539 160 callgsubr
          222 -106 callgsubr
          316 160 callgsubr
          224 63 callgsubr
        </CharString>
        <CharString name="dvDDH_R">
          26 242 -200 38 callgsubr
          140 626 46 callsubr
        </CharString>
        <CharString name="dvDDH_RA">
          26 646 426 46 callsubr
        </CharString>
        <CharString name="dvDDH_YA">
          966 1363 -10 callgsubr
          -532 78 717 hlineto
          26 callsubr
          -1722 -59 402 -78 -259 hlineto
          -19 callgsubr
          609 -16 callsubr
        </CharString>
        <CharString name="dvDDHxA">
          21 242 -215 -32 callgsubr
          404 491 rmoveto
          137 111 59 -777 -59 402 -78 -259 vlineto
          -19 callgsubr
          endchar
        </CharString>
        <CharString name="dvDD_DDA">
          24 668 103 callgsubr
          92 59 -780 -59 424 227 callgsubr
          -53 -106 callsubr
          274 hlineto
          -57 callsubr
          -77 vlineto
          -68 callsubr
          -48 -51 callsubr
          54 -264 -51 -75 callsubr
          -12 184 callsubr
          -72 -106 callsubr
          494 -102 callsubr
          113 -89 callgsubr
          -274 -51 callsubr
          17 -88 callgsubr
          271 -102 callsubr
          113 -89 callgsubr
          -274 -51 callsubr
          17 -88 callgsubr
          endchar
        </CharString>
        <CharString name="dvDD_DDHA">
          21 668 103 callgsubr
          89 59 -777 -59 424 227 callgsubr
          -53 184 callsubr
          -63 -75 callsubr
          -204 -106 callsubr
          495 -102 callsubr
          100 -89 callgsubr
          -240 -59 42 -93 callgsubr
          -66 -99 callsubr
          -74 -92 callsubr
          271 -102 callsubr
          113 -89 callgsubr
          -274 -51 callsubr
          17 -88 callgsubr
          endchar
        </CharString>
        <CharString name="dvDD_R">
          -6 218 -199 38 callgsubr
          156 625 40 callgsubr
        </CharString>
        <CharString name="dvDD_RA">
          -6 638 426 40 callgsubr
        </CharString>
        <CharString name="dvDD_VA">
          74 335 -173 rmoveto
          -107 callgsubr
          105 -106 callgsubr
          111 -137 hlineto
          -68 callsubr
          294 599 rmoveto
          137 104 59 -830 -59 462 -78 -312 vlineto
          -103 callsubr
          -88 -106 callsubr
          307 hlineto
          -57 callsubr
          -122 vlineto
          -68 callsubr
          -84 173 callgsubr
          -264 -71 -75 callsubr
          -102 -106 callsubr
          284 hlineto
          14 11 3 6 7 hvcurveto
          -47 224 268 vlineto
          46 3 19 22 50 vvcurveto
          158 -89 callgsubr
          -307 -51 callsubr
          52 -88 callgsubr
          endchar
        </CharString>
        <CharString name="dvDD_YA">
          931 1328 -10 callgsubr
          -505 78 690 hlineto
          26 callsubr
          -1687 -59 394 -78 -254 hlineto
          -53 -22 -22 -53 hvcurveto
          -83 vlineto
          -53 22 -22 53 vhcurveto
          -64 callsubr
          577 -16 callsubr
        </CharString>
        <CharString name="dvDDxA">
          -17 222 -215 -32 callgsubr
          413 491 rmoveto
          137 84 59 -739 -59 391 -78 -254 vlineto
          -53 -22 -22 -53 hvcurveto
          -83 vlineto
          -53 22 -22 53 vhcurveto
          -64 callsubr
          endchar
        </CharString>
        <CharString name="dvDH">
          -65 346 137 rmoveto
          -82 callsubr
          244 callsubr
          -22 53 vhcurveto
          650 59 hlineto
          endchar
        </CharString>
        <CharString name="dvDHA">
          258 994 254 callsubr
          -275 -83 callgsubr
          244 callsubr
          -22 53 vhcurveto
          500 -103 callgsubr
        </CharString>
        <CharString name="dvDH_MA">
          991 1391 -63 callgsubr
          708 196 rmoveto
          -1068 -59 360 238 callsubr
          -279 -83 callgsubr
          244 callsubr
          -22 53 vhcurveto
          506 31 callsubr
        </CharString>
        <CharString name="dvDH_NA">
          973 1028 10 callgsubr
          -1050 -59 711 -78 193 callgsubr
          -279 -83 callgsubr
          244 callsubr
          -22 53 vhcurveto
          506 0 callsubr
        </CharString>
        <CharString name="dvDH_N_YA">
          1591 1028 -71 callsubr
          346 hmoveto
          59 -640 vlineto
          -103 callsubr
          -240 -99 callsubr
          -279 -83 callgsubr
          244 callsubr
          -22 53 vhcurveto
          506 -1 callgsubr
          vlineto
          706 -42 callsubr
          -1703 -59 956 hlineto
          -98 callsubr
        </CharString>
        <CharString name="dvDH_R">
          -87 346 157 rmoveto
          -107 callgsubr
          90 -14 callsubr
          123 1 callsubr
          -84 214 101 -7 callsubr
          -128 -75 callsubr
          -93 -106 callsubr
          228 hlineto
          -214 -188 rlineto
          307 hlineto
          215 202 rlineto
          60 45 hlineto
          endchar
        </CharString>
        <CharString name="dvDH_RA">
          258 994 276 callgsubr
          -431 hlineto
          -68 callsubr
          -275 -101 callsubr
          90 -14 callsubr
          123 1 callsubr
          -84 214 101 -7 callsubr
          -128 -75 callsubr
          -93 -106 callsubr
          228 hlineto
          -214 -188 rlineto
          307 hlineto
          211 198 rlineto
          -108 -36 callsubr
        </CharString>
        <CharString name="dvDH_VA">
          634 1370 5 callsubr
          14 callsubr
        </CharString>
        <CharString name="dvDH_YA">
          868 1265 -54 callsubr
          -954 -59 207 15 callgsubr
          -270 -83 callgsubr
          244 callsubr
          -22 53 vhcurveto
          497 -52 callgsubr
        </CharString>
        <CharString name="dvD_BA">
          61 453 -159 rmoveto
          -2 -5 -7 -1 -9 hhcurveto
          -89 -101 callsubr
          55 vlineto
          75 -6 56 0 vhcurveto
          163 33 rmoveto
          -68 vlineto
          -88 6 -44 0 vhcurveto
          -140 200 rlineto
          385 336 rmoveto
          137 80 59 -817 268 callgsubr
          -214 -75 callsubr
          -189 -106 callsubr
          311 235 callgsubr
          261 566 -261 -147 -123 vlineto
          -107 callgsubr
          211 63 callgsubr
        </CharString>
        <CharString name="dvD_BHA">
          251 912 426 263 callsubr
          -1007 -59 668 -78 -265 vlineto
          -103 callsubr
          -217 -106 callsubr
          243 hlineto
          14 11 2 7 7 hvcurveto
          -127 264 284 -264 -82 vlineto
          -20 -2 -9 -5 -23 hhcurveto
          86 callgsubr
          183 -106 callgsubr
          -340 -214 rmoveto
          -85 callgsubr
          -182 -59 20 -93 callgsubr
          -287 203 92 301 59 -301 vlineto
          endchar
        </CharString>
        <CharString name="dvD_B_RA">
          56 451 -31 rmoveto
          261 callgsubr
          43 vlineto
          75 -6 30 0 vhcurveto
          173 21 rmoveto
          -47 vlineto
          -76 8 -54 0 vhcurveto
          -155 177 rlineto
          398 255 263 callsubr
          -812 -59 473 -78 -340 vlineto
          -103 callsubr
          -133 -75 callsubr
          -139 -106 callsubr
          85 hlineto
          -162 -180 rlineto
          269 hlineto
          161 191 rlineto
          -101 261 497 -261 -87 -133 vlineto
          -107 callgsubr
          130 63 callgsubr
        </CharString>
        <CharString name="dvD_DA">
          22 691 103 callgsubr
          67 59 -778 -59 447 -78 -297 vlineto
          -103 callsubr
          -78 -75 callsubr
          106 callsubr
          282 hlineto
          14 11 3 6 7 hvcurveto
          -76 264 236 -264 -76 vlineto
          -68 callsubr
          -57 -101 callsubr
          126 -106 callgsubr
          131 59 -131 -101 callsubr
          73 63 callgsubr
        </CharString>
        <CharString name="dvD_DHA">
          263 227 109 rmoveto
          224 callgsubr
          27 59 -204 hlineto
          163 callgsubr
          697 342 263 callsubr
          -1019 -59 680 -78 -265 vlineto
          -103 callsubr
          -217 vlineto
          143 callgsubr
        </CharString>
        <CharString name="dvD_GA">
          0 658 103 callgsubr
          78 59 -756 270 callgsubr
          vlineto
          183 callgsubr
          55 vlineto
          14 11 3 6 7 hvcurveto
          -226 264 405 -264 -95 vlineto
          -68 callsubr
          -27 -92 callsubr
          endchar
        </CharString>
        <CharString name="dvD_GHA">
          263 924 426 263 callsubr
          -1019 -59 680 -78 -265 vlineto
          -103 callsubr
          -83 -244 vlineto
          163 callgsubr
          25 vlineto
          224 callgsubr
          67 -75 hlineto
          143 callgsubr
        </CharString>
        <CharString name="dvD_G_RA">
          0 736 5 callsubr
          -756 -59 414 -78 -284 hlineto
          183 callgsubr
          95 vlineto
          14 11 3 6 7 hvcurveto
          -97 vlineto
          -363 -260 rlineto
          237 hlineto
          58 44 rlineto
          53 41 24 36 0 0 -9 -30 -74 vvcurveto
          -17 224 536 -224 -95 vlineto
          -68 callsubr
          -67 -92 callsubr
          325 137 78 hlineto
          endchar
        </CharString>
        <CharString name="dvD_MA">
          389 796 183 rmoveto
          -118 144 -249 -95 hlineto
          -68 callsubr
          -52 -101 callsubr
          162 278 callgsubr
          128 hlineto
          329 59 rmoveto
          -1145 -59 424 -78 -284 139 callsubr
          277 hlineto
          14 11 3 6 7 hvcurveto
          -100 249 76 118 -124 254 137 callgsubr
        </CharString>
        <CharString name="dvD_NA">
          -13 723 5 callsubr
          -743 270 callgsubr
          -67 callsubr
          -197 -106 callsubr
          287 hlineto
          14 11 3 6 7 hvcurveto
          -96 -278 vlineto
          -103 callsubr
          -90 244 73 -106 callgsubr
          75 -132 219 466 -219 -95 hlineto
          -68 callsubr
          -62 -101 callsubr
          163 -106 callgsubr
          315 137 65 hlineto
          endchar
        </CharString>
        <CharString name="dvD_R">
          0 671 hmoveto
          249 callsubr
          -75 vlineto
          -68 callsubr
          -27 262 callgsubr
          -106 callgsubr
          315 137 75 59 -756 -59 417 -78 -274 hlineto
          -53 -22 -22 -53 hvcurveto
          139 callgsubr
          vlineto
          281 -151 rmoveto
          -264 hlineto
          147 -202 rlineto
          264 hlineto
          endchar
        </CharString>
        <CharString name="dvD_RA">
          0 661 426 263 callsubr
          -756 -59 417 -78 -274 vlineto
          -103 callsubr
          45 callgsubr
        </CharString>
        <CharString name="dvD_VA">
          66 466 130 rmoveto
          -157 vlineto
          -68 callsubr
          -89 -101 callsubr
          125 -106 callgsubr
          374 296 rmoveto
          137 85 59 -822 268 callgsubr
          -174 -75 callsubr
          -128 -106 callsubr
          311 hlineto
          14 11 3 6 7 hvcurveto
          -68 261 475 -261 -107 -123 vlineto
          -107 callgsubr
          171 63 callgsubr
        </CharString>
        <CharString name="dvD_YA">
          295 692 171 24 callgsubr
          -315 -101 callsubr
          50 -106 callgsubr
          161 59 -161 -101 callsubr
          48 -106 callgsubr
          236 137 113 hlineto
          26 callsubr
          -1051 -59 335 -78 -195 -67 callsubr
          -51 -75 callsubr
          -53 -106 callsubr
          540 -103 callgsubr
        </CharString>
        <CharString name="dvE">
          44 780 5 callsubr
          -800 35 callgsubr
        </CharString>
        <CharString name="dvEcandra">
          44 638 167 callgsubr
          641 -63 rmoveto
          -800 35 callgsubr
        </CharString>
        <CharString name="dvEight">
          -7 414 371 rmoveto
          -105 callgsubr
          -51 -101 callsubr
          159 -106 callgsubr
          51 -93 callgsubr
          -438 vmoveto
          -105 callgsubr
          -51 -101 callsubr
          154 -106 callgsubr
          51 -93 callgsubr
          253 293 rmoveto
          47 -13 36 -56 vhcurveto
          -487 hlineto
          -56 -14 -36 -47 hvcurveto
          -142 vlineto
          -55 41 -27 55 -2 vhcurveto
          -2 vlineto
          -55 -2 -41 -27 -55 vvcurveto
          -144 vlineto
          -47 14 -36 56 vhcurveto
          487 hlineto
          56 13 36 47 hvcurveto
          144 vlineto
          55 -40 27 -55 2 vhcurveto
          2 vlineto
          55 2 40 27 55 vvcurveto
          endchar
        </CharString>
        <CharString name="dvEyelash">
          -3 817 5 callsubr
          -837 -59 837 hlineto
          -263 -103 rmoveto
          -59 -99 callsubr
          -232 -101 callsubr
          59 -254 -76 -106 callsubr
          668 -102 callsubr
          76 vlineto
          endchar
        </CharString>
        <CharString name="dvEyelash_HA">
          312 966 103 callgsubr
          82 59 -1068 -59 722 -78 -264 vlineto
          -103 callsubr
          -47 vlineto
          -5 0 -5 1 -5 vhcurveto
          -76 -101 callsubr
          59 -254 -76 -106 callsubr
          363 -5 hlineto
          181 callsubr
          43 159 callgsubr
          -89 247 98 vlineto
          58 -32 26 -61 vhcurveto
          -231 -51 callsubr
          35 63 callgsubr
        </CharString>
        <CharString name="dvEyelash_YA">
          531 928 -54 callsubr
          -1287 -59 540 hlineto
          -66 callgsubr
          -232 -101 callsubr
          59 -254 -76 -106 callsubr
          238 -156 -86 callsubr
        </CharString>
        <CharString name="dvFive">
          16 322 391 rmoveto
          172 350 59 -614 -290 264 1 62 vlineto
          26 8 -10 -24 hvcurveto
          -207 -99 callsubr
          -26 -101 callsubr
          117 -264 -131 vlineto
          -48 14 -30 56 vhcurveto
          482 hlineto
          56 14 36 47 hvcurveto
          230 vlineto
          48 -14 30 -56 vhcurveto
          endchar
        </CharString>
        <CharString name="dvFour">
          9 715 151 rmoveto
          -58 175 -244 -175 -147 hlineto
          238 471 rlineto
          -263 hlineto
          -221 -438 rlineto
          -91 393 -93 244 93 58 vlineto
          endchar
        </CharString>
        <CharString name="dvG">
          -13 308 137 rmoveto
          -58 callgsubr
          363 485 rmoveto
          -743 -59 39 callsubr
          vlineto
          endchar
        </CharString>
        <CharString name="dvGA">
          356 308 137 rmoveto
          -58 callgsubr
          732 485 rmoveto
          -1112 -59 -69 callsubr
          95 154 callgsubr
        </CharString>
        <CharString name="dvGH">
          -243 346 137 rmoveto
          72 callgsubr
          147 59 -513 -59 87 hlineto
          31 callgsubr
          483 59 hlineto
          endchar
        </CharString>
        <CharString name="dvGHA">
          145 542 171 24 callgsubr
          -162 69 callgsubr
          196 hlineto
          26 callsubr
          -901 -59 87 hlineto
          31 callgsubr
          387 -103 callgsubr
        </CharString>
        <CharString name="dvGH_MA">
          854 1254 -63 callgsubr
          -360 -256 rmoveto
          -105 callgsubr
          -142 69 callgsubr
          536 250 callsubr
          -1610 -59 87 hlineto
          31 callgsubr
          369 31 callsubr
        </CharString>
        <CharString name="dvGH_NA">
          835 1232 169 callsubr
          -141 69 callgsubr
          886 hlineto
          -342 -393 -97 callgsubr
          681 196 rmoveto
          -1591 -59 87 hlineto
          31 callgsubr
          368 0 callsubr
        </CharString>
        <CharString name="dvGH_R">
          -214 55 424 rmoveto
          -79 callgsubr
          -98 -106 callsubr
          147 hlineto
          -183 -188 rlineto
          273 hlineto
          186 205 rlineto
          61 42 -261 hlineto
          -26 -8 9 24 hvcurveto
          95 48 callsubr
          169 59 -542 -59 93 hlineto
          -13 -6 -5 -13 -22 vvcurveto
          endchar
        </CharString>
        <CharString name="dvGH_RA">
          152 549 191 24 callgsubr
          -162 hlineto
          -26 -8 9 24 hvcurveto
          95 48 callsubr
          196 hlineto
          26 callsubr
          -908 -59 93 hlineto
          -13 -6 -5 -13 -22 vvcurveto
          -98 124 callsubr
          147 hlineto
          -183 -188 rlineto
          273 hlineto
          182 201 rlineto
          -111 -36 callsubr
        </CharString>
        <CharString name="dvGH_YA">
          740 1137 -97 callsubr
          -791 -426 rmoveto
          72 callgsubr
          383 15 callgsubr
          988 485 rmoveto
          -1496 -59 87 hlineto
          31 callgsubr
          369 -52 callgsubr
        </CharString>
        <CharString name="dvG_BA">
          808 1055 205 callsubr
          -863 hmoveto
          -58 callgsubr
          1184 485 rmoveto
          -1564 -59 -69 callsubr
          547 -240 vlineto
          138 callgsubr
        </CharString>
        <CharString name="dvG_BHA">
          1099 -24 callsubr
          1147 -452 32 callsubr
          708 308 rmoveto
          -339 -249 -105 174 hlineto
          -39 callsubr
          105 -314 -36 callsubr
        </CharString>
        <CharString name="dvG_BH_YA">
          1669 -24 callsubr
          2086 -451 24 callgsubr
          -283 -101 callsubr
          144 -53 callgsubr
          133 185 callsubr
          -958 -393 32 callsubr
          1297 308 124 callgsubr
          -286 174 hlineto
          -39 callsubr
          79 -161 -106 callsubr
          -91 callsubr
        </CharString>
        <CharString name="dvG_DA">
          710 308 137 rmoveto
          -58 callgsubr
          1011 289 263 callsubr
          -1466 -59 414 -137 235 callsubr
          -198 -106 callsubr
          -33 callsubr
          410 449 -78 -274 vlineto
          -53 -22 -22 -53 hvcurveto
          25 callsubr
        </CharString>
        <CharString name="dvG_DHA">
          978 -24 callsubr
          1734 hmoveto
          -339 -451 hlineto
          -68 callsubr
          -275 -83 callgsubr
          244 callsubr
          -22 53 vhcurveto
          500 -103 callgsubr
        </CharString>
        <CharString name="dvG_DH_VA">
          1344 -24 callsubr
          2100 hmoveto
          14 callsubr
        </CharString>
        <CharString name="dvG_DH_YA">
          1568 -24 callsubr
          1985 -451 -78 callgsubr
          -954 -59 207 15 callgsubr
          -260 -83 callgsubr
          244 callsubr
          -22 53 vhcurveto
          487 -52 callgsubr
        </CharString>
        <CharString name="dvG_GA">
          1077 1029 137 rmoveto
          -58 callgsubr
          -773 hmoveto
          -58 callgsubr
          1453 485 rmoveto
          -1833 -59 -69 callsubr
          457 -137 235 callsubr
          -198 -106 callsubr
          -33 callsubr
          410 95 154 callgsubr
        </CharString>
        <CharString name="dvG_GHA">
          855 1252 171 24 callgsubr
          -162 69 callgsubr
          196 hlineto
          -944 -426 rmoveto
          -58 callgsubr
          1231 485 rmoveto
          -1611 -59 -69 callsubr
          119 vlineto
          31 callgsubr
          387 -103 callgsubr
        </CharString>
        <CharString name="dvG_JA">
          1080 308 137 rmoveto
          -58 callgsubr
          1456 485 rmoveto
          -1836 -59 -69 callsubr
          819 -78 -342 -11 callsubr
          88 -23 callgsubr
          vlineto
          endchar
        </CharString>
        <CharString name="dvG_LA">
          1109 308 137 rmoveto
          -58 callgsubr
          1485 485 rmoveto
          -1865 -59 -69 callsubr
          848 92 callgsubr
          -23 callgsubr
          hlineto
          endchar
        </CharString>
        <CharString name="dvG_MA">
          1090 1490 -63 callgsubr
          -810 208 callsubr
          1466 485 rmoveto
          -1846 -59 -69 callsubr
          460 -78 -285 vlineto
          -53 -22 -22 -53 hvcurveto
          191 callgsubr
        </CharString>
        <CharString name="dvG_NA">
          1062 1117 -71 callsubr
          -809 208 callsubr
          1438 485 rmoveto
          -1818 -59 -69 callsubr
          801 -78 -636 vlineto
          -53 -22 -22 -53 hvcurveto
          -257 87 callsubr
        </CharString>
        <CharString name="dvG_NNA">
          1086 1132 12 callgsubr
          -824 -426 rmoveto
          -58 callgsubr
          1462 485 rmoveto
          -1842 -59 -69 callsubr
          110 81 callsubr
          107 154 callgsubr
        </CharString>
        <CharString name="dvG_N_YA">
          1689 1117 -71 callsubr
          354 hmoveto
          59 -648 -34 callsubr
          vlineto
          715 -255 -105 callsubr
          -1778 -426 rmoveto
          -58 callgsubr
          2065 485 rmoveto
          -2445 -59 -69 callsubr
          1020 vlineto
          -98 callsubr
        </CharString>
        <CharString name="dvG_R">
          104 callsubr
          745 131 rmoveto
          -563 -390 rlineto
          307 hlineto
          331 254 rlineto
          endchar
        </CharString>
        <CharString name="dvG_RA">
          331 295 198 62 callgsubr
        </CharString>
        <CharString name="dvG_R_YA">
          950 1347 -97 callsubr
          -1052 -365 73 callsubr
          1339 424 rmoveto
          -1706 -59 401 -78 -271 139 callsubr
          447 -102 callsubr
          349 307 121 callsubr
          -183 hlineto
          -440 -305 rlineto
          307 hlineto
          258 198 rlineto
          458 -103 callgsubr
        </CharString>
        <CharString name="dvG_SA">
          1100 1497 339 rmoveto
          -103 hlineto
          -76 callgsubr
          121 hlineto
          -1189 -426 rmoveto
          -58 callgsubr
          1476 485 rmoveto
          -1856 -59 -69 callsubr
          439 11 callsubr
          465 -280 -36 callsubr
        </CharString>
        <CharString name="dvG_VA">
          739 308 137 rmoveto
          -58 callgsubr
          1115 485 rmoveto
          -1495 -59 -69 callsubr
          478 111 callgsubr
        </CharString>
        <CharString name="dvG_YA">
          974 1371 -97 callsubr
          -1063 -426 rmoveto
          -58 callgsubr
          1350 485 rmoveto
          -1730 -59 -69 callsubr
          305 vlineto
          -98 callsubr
        </CharString>
        <CharString name="dvGx">
          -8 207 26 callgsubr
          101 262 callsubr
          163 220 callgsubr
          -196 hlineto
          -105 callgsubr
          368 485 rmoveto
          -748 -59 414 -138 260 callsubr
          -197 -106 callsubr
          -33 callsubr
          410 70 vlineto
          endchar
        </CharString>
        <CharString name="dvGxA">
          356 207 26 callgsubr
          101 124 rmoveto
          -58 callgsubr
          732 485 rmoveto
          -1112 -59 -69 callsubr
          95 154 callgsubr
        </CharString>
        <CharString name="dvGx_R">
          104 callsubr
          820 -5 rmoveto
          -75 136 -563 -390 rlineto
          307 hlineto
          -42 -204 243 callsubr
        </CharString>
        <CharString name="dvGx_RA">
          331 557 -324 -32 callgsubr
          -262 372 62 callgsubr
        </CharString>
        <CharString name="dvH">
          -50 749 265 rmoveto
          59 -403 vlineto
          -26 -8 8 26 hvcurveto
          35 -106 callgsubr
          305 137 35 59 -706 -59 407 -78 -264 -67 callsubr
          -47 vlineto
          -53 22 -21 53 vhcurveto
          -5 vlineto
          181 callsubr
          endchar
        </CharString>
        <CharString name="dvHA">
          19 671 174 callgsubr
          -775 -59 427 227 callgsubr
          140 callsubr
          -135 -15 callsubr
        </CharString>
        <CharString name="dvHA_mU">
          19 671 174 callgsubr
          -775 -59 427 -78 -284 vlineto
          199 callgsubr
          295 -93 callgsubr
          -103 -99 callsubr
          -31 hlineto
          -23 -7 8 20 -12 hvcurveto
          -44 79 rlineto
          -236 hlineto
          60 -102 rlineto
          -59 35 21 -5 70 hhcurveto
          375 -102 callsubr
          137 -89 callgsubr
          -280 -101 callsubr
          129 256 callsubr
          -84 247 93 vlineto
          58 -32 26 -61 vhcurveto
          162 callgsubr
          35 63 callgsubr
        </CharString>
        <CharString name="dvHA_mUU">
          19 382 -23 271 callgsubr
          24 208 callgsubr
          -230 -101 callsubr
          129 256 callsubr
          -89 247 98 vlineto
          58 -32 26 -61 vhcurveto
          162 callgsubr
          35 278 callgsubr
          84 59 -775 -59 427 -78 -284 hlineto
          199 callgsubr
          21 hlineto
          -40 callsubr
          -120 -106 callsubr
          275 59 -77 -101 callsubr
          endchar
        </CharString>
        <CharString name="dvHA_mvR">
          17 671 103 callgsubr
          82 59 -773 -59 427 227 callgsubr
          -44 -75 callsubr
          -189 -106 callsubr
          565 59 -342 hlineto
          -26 -8 12 24 hvcurveto
          190 -88 callgsubr
          60 hlineto
          20 11 -3 -12 hvcurveto
          -29 -46 -72 -33 vvcurveto
          -37 22 -17 48 vhcurveto
          227 59 -29 hlineto
          -19 -11 3 12 hvcurveto
          29 46 72 33 vvcurveto
          37 -22 17 -48 vhcurveto
          -259 -51 callsubr
          32 63 callgsubr
        </CharString>
        <CharString name="dvH_LA">
          168 751 103 callgsubr
          153 59 -924 -59 507 -78 -364 vlineto
          -103 callsubr
          -27 -75 callsubr
          -224 -106 callsubr
          655 59 -432 -101 callsubr
          228 -88 callgsubr
          322 159 callgsubr
          -5 -76 vlineto
          -25 -9 -10 -25 hvcurveto
          -3 hlineto
          25 -9 10 -25 vhcurveto
          -164 hlineto
          -25 -10 -10 -25 hvcurveto
          -147 vlineto
          -25 10 -10 25 vhcurveto
          160 27 -55 hlineto
          -12 -4 5 11 hvcurveto
          131 vlineto
          11 4 4 12 vhcurveto
          17 hlineto
          12 4 -4 -11 hvcurveto
          -91 124 91 vlineto
          11 4 4 12 vhcurveto
          33 -189 141 231 hlineto
          58 -32 26 -61 vhcurveto
          -404 -51 callsubr
          15 63 callgsubr
        </CharString>
        <CharString name="dvH_MA">
          418 815 258 rmoveto
          -125 hlineto
          52 -3 -32 24 -58 hhcurveto
          162 callgsubr
          25 278 callgsubr
          144 hlineto
          26 callsubr
          -1174 -59 427 -78 260 callsubr
          -37 -75 callsubr
          -145 -106 callsubr
          545 59 -322 -101 callsubr
          149 256 callsubr
          -109 247 67 125 -199 -36 callsubr
        </CharString>
        <CharString name="dvH_NA">
          124 711 103 callgsubr
          149 59 -880 -59 467 -78 -324 vlineto
          -103 callsubr
          -37 -75 callsubr
          -214 -106 callsubr
          588 59 -365 -101 callsubr
          218 -88 callgsubr
          241 159 callgsubr
          -25 -183 vlineto
          -103 callsubr
          -70 174 53 -106 callgsubr
          50 -122 174 215 hlineto
          58 -32 26 -61 vhcurveto
          -356 -51 callsubr
          25 63 callgsubr
        </CharString>
        <CharString name="dvH_NNA">
          169 509 184 rmoveto
          -18 -3 -3 -18 vhcurveto
          -18 hlineto
          -18 -3 3 18 hvcurveto
          101 60 vlineto
          242 141 rmoveto
          137 154 59 -925 -59 507 -78 -364 vlineto
          -103 callsubr
          -27 -75 callsubr
          -155 -106 callsubr
          655 59 -432 -101 callsubr
          159 -88 callgsubr
          19 -108 hlineto
          -52 21 -21 52 vhcurveto
          82 hlineto
          52 21 21 52 hvcurveto
          108 16 vlineto
          26 8 -10 -24 hvcurveto
          -89 197 98 vlineto
          58 -32 26 -61 vhcurveto
          -401 -51 callsubr
          15 63 callgsubr
        </CharString>
        <CharString name="dvH_RA">
          139 801 103 callgsubr
          74 59 -895 -59 557 -78 -414 vlineto
          -103 callsubr
          -37 -75 callsubr
          -145 -106 callsubr
          655 59 -432 -101 callsubr
          149 -88 callgsubr
          124 hlineto
          -110 -136 rlineto
          82 hlineto
          107 132 rlineto
          10 -4 4 -10 -16 vvcurveto
          -106 247 115 vlineto
          58 -32 26 -61 vhcurveto
          -371 -51 callsubr
          25 63 callgsubr
        </CharString>
        <CharString name="dvH_VA">
          89 761 103 callgsubr
          64 59 -845 -59 517 -78 -374 vlineto
          -103 callsubr
          -27 -75 callsubr
          -224 -106 callsubr
          645 59 -422 -101 callsubr
          228 -88 callgsubr
          213 159 callgsubr
          -146 vlineto
          -13 -4 -4 -13 vhcurveto
          -53 hlineto
          -13 -4 5 11 hvcurveto
          91 vlineto
          12 4 5 13 vhcurveto
          35 29 -146 hlineto
          -26 -11 -11 -26 hvcurveto
          -108 vlineto
          -26 11 -11 26 vhcurveto
          165 hlineto
          7 6 1 4 3 hvcurveto
          -44 167 240 vlineto
          58 -32 26 -61 vhcurveto
          -321 -51 callsubr
          15 63 callgsubr
        </CharString>
        <CharString name="dvH_YA">
          420 817 222 24 callgsubr
          -92 hlineto
          13 6 6 13 22 vvcurveto
          41 vlineto
          58 -32 26 -61 vhcurveto
          -271 -51 callsubr
          5 -106 callgsubr
          345 137 126 hlineto
          26 callsubr
          -1176 -59 447 -78 -304 -67 callsubr
          -17 -75 callsubr
          -165 -106 callsubr
          585 59 -362 -101 callsubr
          169 -88 callgsubr
          83 159 callgsubr
          -40 89 callgsubr
          381 hlineto
          14 11 3 6 7 hvcurveto
          -139 264 564 2 callsubr
        </CharString>
        <CharString name="dvI">
          7 659 174 callgsubr
          -763 21 callsubr
          endchar
        </CharString>
        <CharString name="dvII">
          7 659 174 callgsubr
          -84 236 callgsubr
          49 59 -272 -67 callsubr
          -155 -415 21 callsubr
          endchar
        </CharString>
        <CharString name="dvII_Anusvara">
          7 659 760 271 callgsubr
          49 59 -272 -67 callsubr
          -155 -415 21 callsubr
          320 137 84 59 -84 hlineto
          44 134 rmoveto
          -95 98 95 vlineto
          endchar
        </CharString>
        <CharString name="dvJ">
          7 743 5 callsubr
          -763 -59 763 hlineto
          116 -78 rmoveto
          -445 -315 hlineto
          -75 callgsubr
          191 vlineto
          endchar
        </CharString>
        <CharString name="dvJA">
          359 1095 5 callsubr
          -1115 -59 776 -78 -342 -315 hlineto
          -75 callgsubr
          88 -23 callgsubr
          vlineto
          endchar
        </CharString>
        <CharString name="dvJH">
          12 896 331 rmoveto
          -548 51 callgsubr
          86 59 -768 9 callgsubr
          224 hlineto
          endchar
        </CharString>
        <CharString name="dvJHA">
          389 786 331 rmoveto
          -438 51 callgsubr
          124 hlineto
          26 callsubr
          -1145 100 callgsubr
          239 74 callsubr
          -46 53 -273 -190 273 78 269 hlineto
          105 callsubr
          125 -272 119 callsubr
        </CharString>
        <CharString name="dvJH_MA">
          1115 1515 -63 callgsubr
          -360 -95 rmoveto
          -435 51 callgsubr
          481 250 callsubr
          -1871 9 callgsubr
          111 -119 hlineto
          -107 callsubr
          153 callsubr
        </CharString>
        <CharString name="dvJH_NA">
          1087 1484 485 rmoveto
          -636 -67 callsubr
          -79 -425 vlineto
          -26 -8 8 26 hvcurveto
          27 -88 callgsubr
          314 137 822 hlineto
          -342 -393 -97 callgsubr
          681 196 rmoveto
          -1843 9 callgsubr
          101 -119 200 callsubr
        </CharString>
        <CharString name="dvJH_R">
          103 664 256 rmoveto
          6 211 callgsubr
          309 59 -621 51 callgsubr
          174 59 -859 -59 421 -78 -273 -67 callsubr
          173 callsubr
          238 74 callsubr
          -45 53 -273 -190 273 78 268 -102 callsubr
          -251 -273 rmoveto
          307 hlineto
          253 194 rlineto
          194 vlineto
          endchar
        </CharString>
        <CharString name="dvJH_RA">
          452 866 331 rmoveto
          -515 51 callgsubr
          201 hlineto
          322 59 rmoveto
          -1208 -59 421 -78 -273 -67 callsubr
          173 callsubr
          238 74 callsubr
          -45 53 -273 -190 273 78 268 hlineto
          105 callsubr
          203 -78 hlineto
          -26 callsubr
        </CharString>
        <CharString name="dvJH_YA">
          991 1388 -97 callsubr
          -615 -232 rmoveto
          -425 51 callgsubr
          318 hlineto
          -80 callsubr
          hlineto
          954 254 rmoveto
          -1747 9 callgsubr
          101 -119 -86 callsubr
        </CharString>
        <CharString name="dvJ_BA">
          819 1066 137 44 callgsubr
          -1575 -59 1236 193 callsubr
          -752 -315 hlineto
          -75 callgsubr
          101 231 callsubr
          206 callgsubr
        </CharString>
        <CharString name="dvJ_DA">
          728 1389 426 263 callsubr
          -1484 -59 1145 -78 -711 -11 callsubr
          109 231 callsubr
          25 callsubr
        </CharString>
        <CharString name="dvJ_DDA">
          719 1371 174 callgsubr
          -1475 -59 1127 -78 -693 -11 callsubr
          111 77 callgsubr
        </CharString>
        <CharString name="dvJ_JA">
          1082 1818 5 callsubr
          -1838 -59 1499 164 callgsubr
          -608 -11 callsubr
          100 -273 87 callsubr
        </CharString>
        <CharString name="dvJ_JHA">
          1112 1509 331 rmoveto
          -438 51 callgsubr
          124 hlineto
          26 callsubr
          -1868 -59 1141 -78 -707 -315 hlineto
          -75 callgsubr
          106 231 callsubr
          173 callsubr
          239 74 callsubr
          -46 53 -273 -190 273 78 269 hlineto
          105 callsubr
          125 -272 119 callsubr
        </CharString>
        <CharString name="dvJ_J_NYA">
          1079 1815 5 callsubr
          -1835 -59 1496 -78 -1062 -315 hlineto
          -75 callgsubr
          108 231 callsubr
          86 callsubr
        </CharString>
        <CharString name="dvJ_J_VA">
          1463 2199 5 callsubr
          -2219 -59 1880 -392 hlineto
          -78 callsubr
          -673 -315 hlineto
          -73 callsubr
          315 -608 -11 callsubr
          100 -273 -106 callsubr
          38 callsubr
          91 vlineto
          183 callsubr
        </CharString>
        <CharString name="dvJ_J_YA">
          1709 1491 426 rmoveto
          59 -354 -315 vlineto
          -73 callsubr
          315 -608 -11 callsubr
          100 -273 -106 callsubr
          38 callsubr
          vlineto
          715 -42 callsubr
          -2465 -59 1718 hlineto
          -98 callsubr
        </CharString>
        <CharString name="dvJ_KA">
          1109 1845 280 callgsubr
          -1865 -59 1167 -392 vlineto
          -90 callsubr
          -683 -315 hlineto
          -75 callgsubr
          111 231 callsubr
          -28 callgsubr
        </CharString>
        <CharString name="dvJ_MA">
          1110 1510 -63 callgsubr
          708 196 rmoveto
          -1866 -59 1158 -78 -724 -315 hlineto
          -75 callgsubr
          111 vlineto
          99 callgsubr
        </CharString>
        <CharString name="dvJ_NA">
          1082 1137 10 callgsubr
          -1838 -59 1499 -78 -1065 -315 hlineto
          -75 callgsubr
          101 vlineto
          168 callgsubr
        </CharString>
        <CharString name="dvJ_NY">
          4 740 5 callsubr
          -760 -59 760 hlineto
          169 -137 rmoveto
          59 -782 vlineto
          -103 callsubr
          107 callsubr
          endchar
        </CharString>
        <CharString name="dvJ_NYA">
          356 1092 5 callsubr
          -1112 -59 773 -78 -626 -67 callsubr
          86 callsubr
        </CharString>
        <CharString name="dvJ_NY_YA">
          981 350 324 rmoveto
          -26 -8 8 26 hvcurveto
          34 -88 callgsubr
          413 59 -636 -67 callsubr
          142 callgsubr
          780 -153 -78 callgsubr
          -1737 -59 990 hlineto
          -98 callsubr
        </CharString>
        <CharString name="dvJ_R">
          266 callgsubr
          -121 -683 rmoveto
          393 304 rlineto
          183 vlineto
          -700 -487 rlineto
          700 605 rmoveto
          -596 45 callsubr
          345 vlineto
          endchar
        </CharString>
        <CharString name="dvJ_RA">
          346 1082 622 82 callsubr
        </CharString>
        <CharString name="dvJ_TA">
          785 1521 5 callsubr
          -1541 -59 1205 -78 -771 -315 hlineto
          -75 callgsubr
          111 143 callsubr
        </CharString>
        <CharString name="dvJ_TTA">
          728 1374 426 232 callsubr
          -1484 -59 1130 -78 -696 -11 callsubr
          111 vlineto
          55 callsubr
        </CharString>
        <CharString name="dvJ_VA">
          740 1476 5 callsubr
          -1496 -59 1157 -392 hlineto
          -78 callsubr
          -673 -315 hlineto
          -75 callgsubr
          91 vlineto
          183 callsubr
        </CharString>
        <CharString name="dvJ_YA">
          986 768 426 rmoveto
          59 -354 -11 callsubr
          vlineto
          715 -42 callsubr
          -1742 -59 995 hlineto
          -98 callsubr
        </CharString>
        <CharString name="dvJx">
          269 callgsubr
          -501 -700 -32 callgsubr
          629 472 rmoveto
          -445 -315 hlineto
          -75 callgsubr
          191 vlineto
          endchar
        </CharString>
        <CharString name="dvJxA">
          359 230 26 callgsubr
          865 609 rmoveto
          -1115 -59 776 -78 -342 -315 hlineto
          -75 callgsubr
          88 -23 callgsubr
          vlineto
          endchar
        </CharString>
        <CharString name="dvJx_JxA">
          1082 230 26 callgsubr
          723 -150 -32 callgsubr
          865 609 rmoveto
          -1838 -59 1499 164 callgsubr
          -608 -11 callsubr
          100 -273 87 callsubr
        </CharString>
        <CharString name="dvJx_R">
          266 callgsubr
          -684 -612 -32 callgsubr
          563 -221 rmoveto
          393 304 rlineto
          183 vlineto
          -700 -487 rlineto
          700 605 rmoveto
          -596 45 callsubr
          345 vlineto
          endchar
        </CharString>
        <CharString name="dvJx_RA">
          346 51 -49 -32 callgsubr
          1031 521 82 callsubr
        </CharString>
        <CharString name="dvJx_YA">
          976 230 -163 -32 callgsubr
          528 439 rmoveto
          59 -344 -315 vlineto
          -24 -8 -9 -26 vhcurveto
          -47 hlineto
          -26 -8 9 24 hvcurveto
          315 -254 -332 vlineto
          -53 22 -22 53 vhcurveto
          120 callgsubr
          -1732 -59 985 hlineto
          -98 callsubr
        </CharString>
        <CharString name="dvK">
          9 710 485 179 callsubr
          67 59 -765 -59 434 -392 vlineto
          -99 callgsubr
          189 59 hlineto
          endchar
        </CharString>
        <CharString name="dvKA">
          376 1112 280 callgsubr
          -1132 -59 434 -392 vlineto
          -26 -8 -8 -26 vhcurveto
          -37 hlineto
          -26 -8 9 24 hvcurveto
          223 vlineto
          24 8 9 26 vhcurveto
          21 59 -244 hlineto
          -53 -22 -22 -53 hvcurveto
          -28 callgsubr
        </CharString>
        <CharString name="dvKH">
          283 309 211 rmoveto
          247 hlineto
          112 callsubr
          388 59 -1039 -59 391 -260 -99 callsubr
          -28 161 -264 -356 hlineto
          194 callgsubr
          654 87 rmoveto
          -76 callsubr
          354 59 hlineto
          endchar
        </CharString>
        <CharString name="dvKHA">
          623 1359 5 callsubr
          -1379 -59 391 -260 hlineto
          -24 -8 -9 -26 vhcurveto
          -28 161 -264 -356 7 callsubr
        </CharString>
        <CharString name="dvKH_KHA">
          1613 2349 5 callsubr
          -2369 -69 callgsubr
          730 -260 -99 callsubr
          -28 161 -264 -219 hlineto
          -105 callgsubr
          -38 hlineto
          -76 callsubr
          236 hlineto
          12 180 callsubr
          -48 vlineto
          6 callgsubr
        </CharString>
        <CharString name="dvKH_MA">
          1355 1755 -63 callgsubr
          708 196 rmoveto
          -2111 -69 callgsubr
          752 -78 61 callsubr
          -198 -99 callsubr
          -26 hlineto
          -76 callsubr
          224 hlineto
          13 11 280 callsubr
          -32 7 23 -14 42 77 callsubr
        </CharString>
        <CharString name="dvKH_NA">
          1338 1393 10 callgsubr
          -2094 -69 callgsubr
          1104 -78 -636 vlineto
          -103 callsubr
          -198 vlineto
          -19 callsubr
          13 11 280 callsubr
          -32 7 23 -14 42 hhcurveto
          38 callsubr
          88 -426 -36 callsubr
        </CharString>
        <CharString name="dvKH_R">
          113 callgsubr
          351 190 130 callsubr
        </CharString>
        <CharString name="dvKH_RA">
          623 1359 5 callsubr
          -1379 -59 391 -250 hlineto
          -24 -8 -9 -26 vhcurveto
          -28 151 -264 -356 -2 callsubr
        </CharString>
        <CharString name="dvKH_SHA">
          1352 309 211 rmoveto
          247 hlineto
          112 callsubr
          348 59 -999 0 callgsubr
        </CharString>
        <CharString name="dvKH_TA">
          1030 1766 5 callsubr
          -1786 -69 callgsubr
          799 -78 -332 vlineto
          -103 callsubr
          -198 -99 callsubr
          -26 hlineto
          -76 callsubr
          224 hlineto
          12 180 callsubr
          -48 -74 callgsubr
          109 7 callgsubr
          hlineto
          endchar
        </CharString>
        <CharString name="dvKH_VA">
          1005 1741 5 callsubr
          -1761 -69 callgsubr
          771 -392 vlineto
          -63 callsubr
          -198 -99 callsubr
          -26 hlineto
          -76 callsubr
          224 hlineto
          13 11 280 callsubr
          -32 7 23 -14 42 hhcurveto
          272 -103 callgsubr
        </CharString>
        <CharString name="dvKH_YA">
          1242 1639 -54 callsubr
          -1998 -69 callgsubr
          600 121 callsubr
          -156 76 callgsubr
          13 11 280 callsubr
          -32 7 23 -14 42 hhcurveto
          -91 callsubr
        </CharString>
        <CharString name="dvKHx">
          263 371 -215 -32 callgsubr
          -62 276 rmoveto
          247 hlineto
          112 callsubr
          368 59 -1019 -59 391 -260 -99 callsubr
          -28 161 -264 -356 hlineto
          194 callgsubr
          654 87 rmoveto
          -76 callsubr
          335 59 hlineto
          endchar
        </CharString>
        <CharString name="dvKHxA">
          623 371 -215 -32 callgsubr
          988 687 rmoveto
          -1379 -59 391 -260 hlineto
          -24 -8 -9 -26 vhcurveto
          -28 161 -264 -356 7 callsubr
        </CharString>
        <CharString name="dvKHx_MA">
          1356 371 -241 -32 callgsubr
          1385 576 -66 callsubr
          708 196 rmoveto
          -2112 -69 callgsubr
          753 -78 61 callsubr
          -198 vlineto
          -19 callsubr
          13 11 280 callsubr
          -32 7 23 -14 42 77 callsubr
        </CharString>
        <CharString name="dvKHx_R">
          113 callgsubr
          205 -285 -32 callgsubr
          146 325 130 callsubr
        </CharString>
        <CharString name="dvKHx_RA">
          623 817 -285 -32 callgsubr
          542 757 rmoveto
          -1379 -59 391 -250 hlineto
          -24 -8 -9 -26 vhcurveto
          -28 151 -264 -356 -2 callsubr
        </CharString>
        <CharString name="dvKHx_SA">
          1356 371 -241 -32 callgsubr
          1382 430 rmoveto
          -103 hlineto
          -76 callgsubr
          121 hlineto
          26 callsubr
          -2112 -69 callgsubr
          722 vlineto
          -56 callgsubr
          137 -264 -264 76 callgsubr
          12 180 callsubr
          -48 vlineto
          -100 callgsubr
          465 -280 -36 callsubr
        </CharString>
        <CharString name="dvKHx_SHA">
          1352 371 -241 -32 callgsubr
          -62 302 rmoveto
          247 hlineto
          112 callsubr
          368 59 -1019 0 callgsubr
        </CharString>
        <CharString name="dvKHx_TA">
          1031 371 -241 -32 callgsubr
          1396 713 rmoveto
          -1787 -69 callgsubr
          800 -78 -332 vlineto
          -103 callsubr
          -198 vlineto
          -19 callsubr
          12 180 callsubr
          -48 -74 callgsubr
          109 7 callgsubr
          hlineto
          endchar
        </CharString>
        <CharString name="dvKHx_VA">
          1006 371 -241 -32 callgsubr
          1371 713 rmoveto
          -1762 -69 callgsubr
          772 -392 vlineto
          -63 callsubr
          -198 vlineto
          -19 callsubr
          13 11 280 callsubr
          -32 7 23 -14 42 hhcurveto
          272 -103 callgsubr
        </CharString>
        <CharString name="dvKHx_YA">
          1242 371 -241 -32 callgsubr
          1268 262 -78 callgsubr
          -1998 -69 callgsubr
          600 121 callsubr
          -156 76 callgsubr
          13 11 280 callsubr
          -32 7 23 -14 42 hhcurveto
          -91 callsubr
        </CharString>
        <CharString name="dvK_CA">
          830 1227 171 24 callgsubr
          -107 hlineto
          122 callgsubr
          -430 hlineto
          -49 callgsubr
          549 vlineto
          26 callsubr
          -1586 -59 434 -392 hlineto
          -99 callgsubr
          95 hlineto
          50 callsubr
          332 -103 callgsubr
        </CharString>
        <CharString name="dvK_DA">
          730 1127 485 rmoveto
          -417 hlineto
          -49 callgsubr
          449 vlineto
          264 -137 263 callsubr
          -1486 -59 434 -392 vlineto
          -99 callgsubr
          67 hlineto
          -40 callsubr
          25 callsubr
        </CharString>
        <CharString name="dvK_JA">
          1102 1499 485 rmoveto
          169 callgsubr
          -332 vlineto
          239 callsubr
          26 callsubr
          -1858 -59 434 -392 hlineto
          -99 callgsubr
          76 192 callsubr
        </CharString>
        <CharString name="dvK_KA">
          1121 1159 171 rmoveto
          -90 callsubr
          -399 hlineto
          -49 callgsubr
          481 vlineto
          698 hmoveto
          59 -1877 -59 434 -392 vlineto
          -99 callgsubr
          79 hlineto
          -40 callsubr
          -28 callgsubr
        </CharString>
        <CharString name="dvK_KHA">
          1366 1114 303 rmoveto
          259 callsubr
          -342 hlineto
          -49 callgsubr
          436 vlineto
          988 59 rmoveto
          -2122 -59 434 -392 hlineto
          -99 callgsubr
          76 5 callgsubr
        </CharString>
        <CharString name="dvK_LA">
          1128 1525 485 rmoveto
          -161 hlineto
          -62 callgsubr
          -501 hlineto
          -49 callgsubr
          847 vlineto
          26 callsubr
          -1884 -59 434 -392 hlineto
          -99 callgsubr
          76 hlineto
          -40 callsubr
          -335 -84 callgsubr
        </CharString>
        <CharString name="dvK_MA">
          1120 1520 -63 callgsubr
          59 vmoveto
          -438 hlineto
          -49 callgsubr
          470 vlineto
          708 59 rmoveto
          -1876 -59 434 -392 hlineto
          -99 callgsubr
          77 hlineto
          99 callgsubr
        </CharString>
        <CharString name="dvK_NA">
          1102 1499 485 rmoveto
          -789 hlineto
          -14 -11 -3 -6 -7 hvcurveto
          87 821 194 callsubr
          681 196 rmoveto
          -1858 -59 434 -392 hlineto
          -99 callgsubr
          77 hlineto
          168 callgsubr
        </CharString>
        <CharString name="dvK_NNA">
          1106 1152 12 callgsubr
          -442 -78 179 callsubr
          110 -78 vlineto
          1054 137 rmoveto
          -1862 -59 434 -392 hlineto
          -99 callgsubr
          76 -273 hlineto
          133 callsubr
          107 154 callgsubr
        </CharString>
        <CharString name="dvK_PA">
          770 1167 -33 callgsubr
          -457 -78 179 callsubr
          120 -78 vlineto
          708 137 rmoveto
          -1526 -59 434 -392 hlineto
          -99 callgsubr
          86 207 callgsubr
        </CharString>
        <CharString name="dvK_PHA">
          1124 1167 -33 callgsubr
          -457 -78 179 callsubr
          120 -78 vlineto
          1062 78 rmoveto
          59 -1880 -59 434 -392 vlineto
          -99 callgsubr
          86 -273 -50 callsubr
        </CharString>
        <CharString name="dvK_P_RA">
          760 1157 33 callgsubr
          -447 -78 179 callsubr
          110 -78 vlineto
          708 137 rmoveto
          -1516 -59 434 -392 hlineto
          -99 callgsubr
          76 -223 113 callsubr
        </CharString>
        <CharString name="dvK_R">
          25 713 485 179 callsubr
          80 59 -781 -8 callsubr
          241 59 hlineto
          endchar
        </CharString>
        <CharString name="dvK_RA">
          379 1115 280 callgsubr
          -1135 -8 callsubr
          37 -93 callgsubr
          -203 -14 callgsubr
          237 -89 callgsubr
          -262 hlineto
          -49 callgsubr
          vlineto
          endchar
        </CharString>
        <CharString name="dvK_SA">
          1120 1517 123 callgsubr
          705 93 rmoveto
          -1876 -59 434 -392 hlineto
          -26 -8 -8 -26 vhcurveto
          -37 hlineto
          -26 -8 9 24 hvcurveto
          223 vlineto
          24 8 9 26 vhcurveto
          21 59 -244 hlineto
          -53 -22 -22 -53 hvcurveto
          -35 callsubr
          465 -280 -53 callsubr
          vlineto
          endchar
        </CharString>
        <CharString name="dvK_SHA">
          1116 868 5 callsubr
          -103 callsubr
          -62 -83 vlineto
          -49 callgsubr
          67 59 -765 -59 434 -392 vlineto
          -99 callgsubr
          345 104 4 callsubr
          23 -93 callgsubr
          -175 33 callsubr
          39 -264 -286 hlineto
          -52 callsubr
          171 29 callgsubr
          209 -89 callgsubr
          515 hmoveto
          -339 -622 119 callsubr
        </CharString>
        <CharString name="dvK_SS">
          35 343 529 248 callsubr
          19 hlineto
          -57 callsubr
          -137 vlineto
          -68 callsubr
          -19 -51 callsubr
          622 -93 rmoveto
          59 -307 vlineto
          -38 callsubr
          endchar
        </CharString>
        <CharString name="dvK_SSA">
          398 430 392 47 callsubr
          704 93 rmoveto
          -338 -264 -138 hlineto
          -38 callsubr
          478 -299 263 154 callsubr
        </CharString>
        <CharString name="dvK_SS_MA">
          1113 1513 -63 callgsubr
          -711 -34 47 callsubr
          1419 93 rmoveto
          -1068 -59 360 -78 197 callgsubr
          -52 -123 vlineto
          -38 callsubr
          463 -146 hlineto
          -107 callsubr
          153 callsubr
        </CharString>
        <CharString name="dvK_SS_M_YA">
          1716 2113 -97 callsubr
          -972 55 callgsubr
          223 28 callsubr
          -711 -34 47 callsubr
          2022 93 rmoveto
          -1673 -59 362 -78 197 callgsubr
          -52 -123 vlineto
          -38 callsubr
          463 -146 hlineto
          -107 callsubr
          88 callsubr
          93 59 -93 78 300 vlineto
          -98 callsubr
        </CharString>
        <CharString name="dvK_SS_VA">
          763 430 392 47 callsubr
          1069 93 84 callsubr
          -52 -123 vlineto
          -38 callsubr
          463 -146 213 callsubr
        </CharString>
        <CharString name="dvK_SS_YA">
          989 1386 171 24 callgsubr
          -283 -101 callsubr
          136 -53 callgsubr
          141 185 callsubr
          -956 -164 24 callgsubr
          -19 -51 callsubr
          130 -88 callgsubr
          19 hlineto
          -57 callsubr
          1295 93 rmoveto
          -954 -59 207 hlineto
          -57 callsubr
          -131 -99 callsubr
          -320 hlineto
          17 7 7 17 29 vvcurveto
          129 64 callsubr
          -129 vlineto
          128 callsubr
          -137 -106 callsubr
          300 -104 callgsubr
          228 -264 -57 vlineto
          -68 callsubr
          -75 -51 callsubr
          101 -88 callgsubr
          453 -153 -86 callsubr
        </CharString>
        <CharString name="dvK_S_DDA">
          1456 1590 485 rmoveto
          147 callgsubr
          448 -78 hlineto
          -693 -113 54 callsubr
          957 -103 rmoveto
          137 84 59 -2212 -59 434 -392 vlineto
          -26 -8 -8 -26 vhcurveto
          -37 hlineto
          -26 -8 9 24 hvcurveto
          223 vlineto
          24 8 9 26 vhcurveto
          21 59 -244 hlineto
          -53 -22 -22 -53 hvcurveto
          -35 callsubr
          473 vlineto
          -19 11 21 -9 33 hhcurveto
          -64 callsubr
          endchar
        </CharString>
        <CharString name="dvK_S_P_LA">
          2230 2627 67 callsubr
          -1213 214 callsubr
          -374 33 54 callsubr
          1815 93 rmoveto
          -2986 -59 434 -392 hlineto
          -26 -8 -8 -26 vhcurveto
          -37 hlineto
          -26 -8 9 24 hvcurveto
          223 vlineto
          24 8 9 26 vhcurveto
          21 59 -244 hlineto
          -53 -22 -22 -53 hvcurveto
          -35 callsubr
          473 106 callsubr
          259 hlineto
          12 10 1 2 8 hvcurveto
          -6 -84 callgsubr
        </CharString>
        <CharString name="dvK_S_P_RA">
          1497 1894 33 callgsubr
          -480 214 callsubr
          -374 33 54 callsubr
          1082 93 rmoveto
          -2253 -59 434 -392 hlineto
          -26 -8 -8 -26 vhcurveto
          -37 hlineto
          -26 -8 9 24 hvcurveto
          223 vlineto
          24 8 9 26 vhcurveto
          21 59 -244 hlineto
          -53 -22 -22 -53 hvcurveto
          -35 callsubr
          473 -77 71 callgsubr
        </CharString>
        <CharString name="dvK_S_TA">
          1525 1925 485 rmoveto
          -332 -67 callsubr
          -71 -104 vlineto
          -76 callgsubr
          529 hlineto
          -774 -191 54 callsubr
          1110 93 rmoveto
          -2281 -59 434 -392 hlineto
          -26 -8 -8 -26 vhcurveto
          -37 hlineto
          -26 -8 9 24 hvcurveto
          223 vlineto
          24 8 9 26 vhcurveto
          21 59 -244 hlineto
          -53 -22 -22 -53 hvcurveto
          -35 callsubr
          466 -205 -74 callgsubr
          109 7 callgsubr
          hlineto
          endchar
        </CharString>
        <CharString name="dvK_S_TTA">
          1468 1593 485 rmoveto
          -103 callsubr
          -71 -104 vlineto
          -76 callgsubr
          454 -78 hlineto
          -699 -113 54 callsubr
          963 -103 232 callsubr
          -2224 -59 434 -392 vlineto
          -26 -8 -8 -26 vhcurveto
          -37 hlineto
          -26 -8 9 24 hvcurveto
          223 vlineto
          24 8 9 26 vhcurveto
          21 59 -244 hlineto
          -53 -22 -22 -53 hvcurveto
          -35 callsubr
          466 144 callgsubr
        </CharString>
        <CharString name="dvK_TA">
          483 1219 280 callgsubr
          -1239 -59 506 -78 -481 -59 93 vlineto
          101 callsubr
          301 246 callsubr
          115 -426 261 392 hlineto
          -80 callgsubr
          72 -93 callgsubr
          -301 -99 callsubr
          -31 -59 254 -102 callsubr
          335 -89 callgsubr
          -297 hlineto
          -49 callgsubr
          vlineto
          endchar
        </CharString>
        <CharString name="dvK_THA">
          1081 1817 622 141 callsubr
          -88 vlineto
          -49 callgsubr
          67 59 -765 -59 434 -392 vlineto
          -99 callgsubr
          345 57 callgsubr
        </CharString>
        <CharString name="dvK_TTA">
          738 1120 485 rmoveto
          -410 hlineto
          -49 callgsubr
          442 vlineto
          264 -137 232 callsubr
          -1494 -59 434 -392 vlineto
          -99 callgsubr
          77 131 callsubr
        </CharString>
        <CharString name="dvK_T_RA">
          824 1222 313 rmoveto
          264 callsubr
          -253 hlineto
          -49 callgsubr
          544 vlineto
          338 59 rmoveto
          -1580 -59 434 -392 hlineto
          -99 callgsubr
          50 hlineto
          79 callsubr
          14 -222 263 154 callsubr
        </CharString>
        <CharString name="dvK_T_VA">
          1200 1597 171 rmoveto
          -78 callsubr
          -837 hlineto
          -49 callgsubr
          919 vlineto
          26 callsubr
          -1956 -59 434 -392 hlineto
          -99 callgsubr
          77 hlineto
          -40 callsubr
          -70 callgsubr
          133 176 callgsubr
        </CharString>
        <CharString name="dvK_T_YA">
          1442 1839 -54 callsubr
          -2198 -59 434 -392 hlineto
          -99 callgsubr
          84 hlineto
          -40 callsubr
          -335 198 callsubr
          -514 hlineto
          -49 callgsubr
          753 vlineto
          -98 callsubr
        </CharString>
        <CharString name="dvK_VA">
          770 1167 87 callgsubr
          26 callsubr
          -1526 -59 434 -392 hlineto
          -99 callgsubr
          77 176 callgsubr
        </CharString>
        <CharString name="dvK_V_YA">
          1376 1773 -97 callsubr
          -697 -426 rmoveto
          -9 callgsubr
          31 59 -397 hlineto
          -49 callgsubr
          687 121 callsubr
          -198 hlineto
          -105 callgsubr
          988 485 rmoveto
          -2132 -59 434 -392 hlineto
          -99 callgsubr
          67 hlineto
          -40 callsubr
          -64 callgsubr
          275 -52 callgsubr
        </CharString>
        <CharString name="dvK_YA">
          996 1393 -54 callsubr
          -1752 -59 434 -392 hlineto
          -99 callgsubr
          66 59 -68 hlineto
          -49 callgsubr
          307 vlineto
          -98 callsubr
        </CharString>
        <CharString name="dvKx">
          22 58 26 callgsubr
          652 472 179 callsubr
          80 59 -778 -59 434 -392 vlineto
          -99 callgsubr
          216 59 hlineto
          endchar
        </CharString>
        <CharString name="dvKxA">
          376 58 26 callgsubr
          1054 550 rmoveto
          59 -1132 -59 434 -392 vlineto
          -26 -8 -8 -26 vhcurveto
          -37 hlineto
          -26 -8 9 24 hvcurveto
          223 vlineto
          24 8 9 26 vhcurveto
          21 59 -244 hlineto
          -53 -22 -22 -53 hvcurveto
          -28 callgsubr
        </CharString>
        <CharString name="dvKx_BA">
          839 58 26 callgsubr
          1000 413 rmoveto
          128 59 -476 hlineto
          -49 callgsubr
          558 -240 vlineto
          241 callsubr
          -160 -58 44 callgsubr
          -1595 -59 434 -392 hlineto
          -99 callgsubr
          77 hlineto
          -40 callsubr
          206 callgsubr
        </CharString>
        <CharString name="dvKx_KxA">
          1119 58 26 callgsubr
          743 -150 -32 callgsubr
          356 158 rmoveto
          -90 callsubr
          -397 hlineto
          -49 callgsubr
          479 vlineto
          698 hmoveto
          59 -1875 -59 434 -392 vlineto
          -99 callgsubr
          77 hlineto
          -40 callsubr
          -28 callgsubr
        </CharString>
        <CharString name="dvKx_MA">
          1120 58 26 callgsubr
          1462 472 -66 callsubr
          59 vmoveto
          -438 hlineto
          -49 callgsubr
          470 vlineto
          708 59 rmoveto
          -1876 -59 434 -392 hlineto
          -99 callgsubr
          77 hlineto
          99 callgsubr
        </CharString>
        <CharString name="dvKx_PHA">
          1114 58 26 callgsubr
          1099 158 rmoveto
          -26 -8 -8 -26 vhcurveto
          -47 hlineto
          -26 -8 9 24 hvcurveto
          393 234 callgsubr
          1062 78 rmoveto
          59 -1870 -59 434 -392 vlineto
          -99 callgsubr
          76 -273 -50 callsubr
        </CharString>
        <CharString name="dvKx_PHxA">
          1114 58 -163 -32 callgsubr
          733 -124 -32 callgsubr
          366 158 rmoveto
          -26 -8 -8 -26 vhcurveto
          -47 hlineto
          -26 -8 9 24 hvcurveto
          393 234 callgsubr
          1062 78 rmoveto
          59 -1870 -59 434 -392 vlineto
          -99 callgsubr
          76 -273 -50 callsubr
        </CharString>
        <CharString name="dvKx_R">
          25 227 -285 -32 callgsubr
          486 620 179 callsubr
          80 59 -781 -8 callsubr
          241 59 hlineto
          endchar
        </CharString>
        <CharString name="dvKx_RA">
          379 227 -285 -32 callgsubr
          888 698 rmoveto
          59 -1135 -8 callsubr
          37 -93 callgsubr
          -203 -14 callgsubr
          237 -89 callgsubr
          -262 hlineto
          -49 callgsubr
          vlineto
          endchar
        </CharString>
        <CharString name="dvKx_TA">
          795 58 26 callgsubr
          1137 472 rmoveto
          -485 hlineto
          -49 callgsubr
          517 vlineto
          336 59 rmoveto
          -1551 -59 434 -392 hlineto
          -99 callgsubr
          77 hlineto
          71 callsubr
        </CharString>
        <CharString name="dvL">
          19 755 5 callsubr
          -775 -59 775 hlineto
          -133 -78 rmoveto
          -101 callgsubr
          141 59 hlineto
          endchar
        </CharString>
        <CharString name="dvLA">
          386 1122 5 callsubr
          -1142 -59 803 -78 -161 -96 callgsubr
          71 -23 callgsubr
          hlineto
          endchar
        </CharString>
        <CharString name="dvLL">
          322 749 130 callgsubr
          -55 -92 callsubr
          55 -93 callgsubr
          -337 -223 rmoveto
          -105 callgsubr
          -55 -92 callsubr
          55 -93 callgsubr
          183 92 rmoveto
          -62 callgsubr
          -327 -30 callsubr
          327 hlineto
          53 21 -74 callsubr
          5 hlineto
          -53 21 -22 53 vhcurveto
          328 -102 callsubr
          257 -89 callgsubr
          -943 137 rmoveto
          -59 1078 59 vlineto
          endchar
        </CharString>
        <CharString name="dvLLA">
          322 749 130 callgsubr
          -55 -92 callsubr
          55 -93 callgsubr
          -337 -223 rmoveto
          -105 callgsubr
          -55 -92 callsubr
          55 -93 callgsubr
          646 170 rmoveto
          59 -1078 -59 636 -78 -21 vlineto
          -62 callgsubr
          -327 -30 callsubr
          327 hlineto
          53 21 -74 callsubr
          5 hlineto
          -53 21 -22 53 vhcurveto
          328 -102 callsubr
          257 -89 callgsubr
          -43 78 hlineto
          endchar
        </CharString>
        <CharString name="dvLL_YA">
          1306 749 130 callgsubr
          -55 -92 callsubr
          55 -93 callgsubr
          -337 -223 rmoveto
          -105 callgsubr
          -55 -92 callsubr
          55 -93 callgsubr
          183 92 rmoveto
          -62 callgsubr
          -327 -30 callsubr
          327 hlineto
          53 21 -74 callsubr
          5 hlineto
          -53 21 -22 53 vhcurveto
          328 -102 callsubr
          257 -89 callgsubr
          780 -314 -78 callgsubr
          -2062 -59 1315 hlineto
          -98 callsubr
        </CharString>
        <CharString name="dvL_BA">
          832 1079 137 44 callgsubr
          -1588 -59 1249 193 callsubr
          -323 hlineto
          -82 callgsubr
          206 callgsubr
        </CharString>
        <CharString name="dvL_BHA">
          1113 230 callsubr
          417 55 callgsubr
          106 28 callsubr
          708 313 rmoveto
          -339 -254 -105 179 252 callgsubr
          -62 -169 -59 callgsubr
          343 104 4 callsubr
          18 -93 callgsubr
          -162 61 callsubr
          -140 166 callsubr
          156 105 -309 -36 callsubr
        </CharString>
        <CharString name="dvL_DA">
          733 1394 426 263 callsubr
          -1489 -59 1150 -78 -274 vlineto
          -82 callgsubr
          25 callsubr
        </CharString>
        <CharString name="dvL_DDA">
          722 1374 174 callgsubr
          -1478 -59 1130 -78 -254 vlineto
          -82 callgsubr
          -83 -106 callsubr
          -64 callsubr
          endchar
        </CharString>
        <CharString name="dvL_DDHA">
          754 1379 103 callgsubr
          111 59 -1510 -59 1135 -78 -259 vlineto
          -82 callgsubr
          -13 callsubr
          endchar
        </CharString>
        <CharString name="dvL_D_RA">
          733 1394 426 263 callsubr
          -1489 -59 1150 -78 -274 vlineto
          -82 callgsubr
          45 callgsubr
        </CharString>
        <CharString name="dvL_GA">
          1102 781 485 rmoveto
          93 callgsubr
          hlineto
          273 208 callsubr
          732 485 rmoveto
          -1858 -59 1160 -137 260 callsubr
          -198 -106 callsubr
          -33 callsubr
          410 95 154 callgsubr
        </CharString>
        <CharString name="dvL_HA">
          752 1404 174 callgsubr
          -1508 -59 1160 -78 -284 vlineto
          -82 callgsubr
          140 callsubr
          -135 -15 callsubr
        </CharString>
        <CharString name="dvL_JA">
          1095 1831 5 callsubr
          -1851 -59 1512 164 callgsubr
          -413 83 callsubr
          38 callsubr
          88 -23 callgsubr
          vlineto
          endchar
        </CharString>
        <CharString name="dvL_JxA">
          1095 966 26 callgsubr
          865 609 rmoveto
          -1851 -59 1512 164 callgsubr
          -413 83 callsubr
          38 callsubr
          88 -23 callgsubr
          vlineto
          endchar
        </CharString>
        <CharString name="dvL_KA">
          1112 1848 280 callgsubr
          -1868 -59 1170 -392 vlineto
          -90 callgsubr
          -82 callgsubr
          -28 callgsubr
        </CharString>
        <CharString name="dvL_KHA">
          1359 2095 5 callsubr
          -2115 -59 1127 -260 hlineto
          259 callsubr
          -423 -6 callsubr
          5 callgsubr
        </CharString>
        <CharString name="dvL_K_YA">
          1732 2129 -54 callsubr
          -2488 -59 1170 -392 hlineto
          -90 callgsubr
          -82 callgsubr
          -86 callgsubr
          66 59 -68 hlineto
          -49 callgsubr
          307 vlineto
          -98 callsubr
        </CharString>
        <CharString name="dvL_LA">
          1123 1859 5 callsubr
          -1879 -59 1540 -78 -161 hlineto
          -62 callgsubr
          -349 hlineto
          -4 0 -231 -96 callgsubr
          71 hlineto
          -40 callsubr
          -335 -84 callgsubr
        </CharString>
        <CharString name="dvL_L_YA">
          1735 1517 485 rmoveto
          -159 hlineto
          -62 callgsubr
          -349 hlineto
          -82 callgsubr
          -335 8 callgsubr
          -2491 -59 1744 hlineto
          -98 callsubr
        </CharString>
        <CharString name="dvL_MA">
          1113 1513 -63 callgsubr
          708 196 rmoveto
          -1869 -59 1161 -78 -285 hlineto
          -82 callgsubr
          -257 166 callsubr
          273 108 7 callgsubr
          vlineto
          endchar
        </CharString>
        <CharString name="dvL_PA">
          753 1150 -33 callgsubr
          26 callsubr
          -1509 -59 801 -78 93 callgsubr
          207 callgsubr
        </CharString>
        <CharString name="dvL_PHA">
          1107 1150 213 callgsubr
          -1863 -59 801 -78 -159 83 callsubr
          -87 callsubr
          392 vlineto
          26 8 8 26 vhcurveto
          32 -93 callgsubr
          -223 3 callgsubr
          257 -89 callgsubr
          -257 hlineto
          -49 callgsubr
          vlineto
          endchar
        </CharString>
        <CharString name="dvL_SA">
          1113 1510 339 rmoveto
          -103 hlineto
          -76 callgsubr
          121 hlineto
          26 callsubr
          -1869 -59 1130 70 callgsubr
          -423 -6 callsubr
          134 callgsubr
        </CharString>
        <CharString name="dvL_TA">
          788 1524 5 callsubr
          -1544 -59 1208 -78 -332 hlineto
          -82 callgsubr
          -70 callgsubr
          109 7 callgsubr
          hlineto
          endchar
        </CharString>
        <CharString name="dvL_THA">
          1074 230 callsubr
          1086 59 141 callsubr
          -169 -59 callgsubr
          338 57 callgsubr
        </CharString>
        <CharString name="dvL_TH_YA">
          1709 230 callsubr
          1382 -392 46 callgsubr
          -62 -196 -59 callgsubr
          365 104 hlineto
          -34 callgsubr
          578 -52 callgsubr
        </CharString>
        <CharString name="dvL_TTA">
          731 1377 426 232 callsubr
          -1487 -59 1133 -78 -257 vlineto
          -82 callgsubr
          -335 vlineto
          -16 callgsubr
          169 -264 9 callsubr
          301 vlineto
          24 8 9 26 vhcurveto
          endchar
        </CharString>
        <CharString name="dvL_TTHA">
          759 1173 192 callgsubr
          322 170 rmoveto
          59 -1515 -59 992 -78 -116 vlineto
          -82 callgsubr
          190 callsubr
        </CharString>
        <CharString name="dvL_VA">
          763 1499 5 callsubr
          -1519 -59 1180 -392 hlineto
          -78 callsubr
          -488 -65 callgsubr
          -64 callgsubr
          272 -98 callgsubr
          75 vlineto
          endchar
        </CharString>
        <CharString name="dvL_V_DDA">
          1101 1753 174 callgsubr
          -1857 -59 1509 -78 -254 vlineto
          164 callsubr
          -125 11 callgsubr
          75 -225 3 -39 -99 callsubr
          -50 -92 callsubr
          31 59 -254 hlineto
          -82 callgsubr
          -64 callgsubr
          277 hlineto
          12 10 1 2 8 hvcurveto
          -6 28 callgsubr
          161 -10 callsubr
          endchar
        </CharString>
        <CharString name="dvL_YA">
          999 781 485 rmoveto
          -159 hlineto
          -53 -21 -22 -53 hvcurveto
          -5 hlineto
          53 -21 22 -53 vhcurveto
          -349 hlineto
          -53 -22 -22 -53 hvcurveto
          -335 8 callgsubr
          -1755 -59 1008 hlineto
          -98 callsubr
        </CharString>
        <CharString name="dvM">
          8 405 130 callgsubr
          -48 -92 callsubr
          82 hlineto
          426 59 rmoveto
          -162 78 75 59 -764 -21 callgsubr
          162 vlineto
          endchar
        </CharString>
        <CharString name="dvMA">
          377 777 -63 callgsubr
          708 196 rmoveto
          -1133 -21 callgsubr
          108 7 callgsubr
          vlineto
          endchar
        </CharString>
        <CharString name="dvM_BA">
          819 1038 426 rmoveto
          128 59 -323 hlineto
          -4 219 callgsubr
          547 -240 vlineto
          241 callsubr
          -160 -58 212 callgsubr
          -777 33 rmoveto
          -105 callgsubr
          -48 -92 callsubr
          82 hlineto
          1150 196 rmoveto
          -1575 -21 callgsubr
          100 231 callsubr
          206 callgsubr
        </CharString>
        <CharString name="dvM_BHA">
          1104 1132 130 callgsubr
          -48 -101 callsubr
          107 28 callsubr
          -727 -140 rmoveto
          -105 callgsubr
          -48 -92 callsubr
          82 hlineto
          1435 196 rmoveto
          -339 -253 -105 178 252 callgsubr
          -62 -113 78 55 59 -744 -59 425 6 callsubr
          377 104 61 callgsubr
          -161 61 callsubr
          -141 166 callsubr
          157 105 -310 -36 callsubr
        </CharString>
        <CharString name="dvM_BH_RA">
          1084 1129 231 78 callsubr
          -724 -197 rmoveto
          -105 callgsubr
          -48 hlineto
          -15 callgsubr
          82 hlineto
          1415 255 rmoveto
          -322 -196 -115 121 hlineto
          -85 callgsubr
          -454 -67 callsubr
          -62 264 45 61 callgsubr
          -104 -460 137 75 59 -764 -59 425 -137 61 callsubr
          -198 166 callsubr
          214 101 231 callsubr
          -137 vlineto
          -53 22 -22 53 vhcurveto
          151 callgsubr
        </CharString>
        <CharString name="dvM_BH_VA">
          1463 1128 94 callgsubr
          -723 -144 rmoveto
          -105 callgsubr
          -48 -92 callsubr
          82 hlineto
          1794 196 84 callsubr
          -37 -89 174 vlineto
          58 callgsubr
          89 -161 -106 callsubr
          272 -98 callgsubr
          75 vlineto
          endchar
        </CharString>
        <CharString name="dvM_BH_YA">
          1690 2087 171 35 callsubr
          -723 -144 rmoveto
          -105 callgsubr
          -48 -92 callsubr
          82 hlineto
          2021 196 124 callgsubr
          -287 174 hlineto
          58 callgsubr
          80 -161 -106 callsubr
          -91 callsubr
        </CharString>
        <CharString name="dvM_B_RA">
          819 1054 426 rmoveto
          112 59 -323 hlineto
          -4 219 callgsubr
          547 -195 vlineto
          -105 10 -50 0 vhcurveto
          -160 -56 rmoveto
          -107 callgsubr
          89 10 callsubr
          -229 149 callsubr
          -777 13 rmoveto
          -105 callgsubr
          -48 -92 callsubr
          82 hlineto
          1150 196 rmoveto
          -1575 -21 callgsubr
          100 231 callsubr
          175 callsubr
        </CharString>
        <CharString name="dvM_B_YA">
          1434 1831 -97 callsubr
          -765 -426 -43 callsubr
          -351 348 rmoveto
          -162 78 754 188 callgsubr
          -4 -4 0 -4 hhcurveto
          -426 -315 rmoveto
          -105 callgsubr
          -48 -92 callsubr
          82 hlineto
          1765 196 rmoveto
          -2190 -21 callgsubr
          100 231 callsubr
          -64 callgsubr
          343 -52 callgsubr
        </CharString>
        <CharString name="dvM_DA">
          721 844 485 rmoveto
          -5 219 callgsubr
          449 -78 vlineto
          -713 -315 rmoveto
          -105 callgsubr
          -48 -92 callsubr
          82 hlineto
          977 hmoveto
          137 75 59 -1477 -59 425 -78 -285 vlineto
          -53 -22 -22 -53 hvcurveto
          -257 vlineto
          -53 22 -22 53 vhcurveto
          474 hlineto
          53 22 22 53 hvcurveto
          273 101 vlineto
          -1 -5 0 -5 -6 vvcurveto
          25 callsubr
        </CharString>
        <CharString name="dvM_HA">
          743 847 485 rmoveto
          -6 -5 0 -1 -5 hvcurveto
          1 -162 78 462 -78 vlineto
          -726 -315 rmoveto
          -105 callgsubr
          -48 -92 callsubr
          82 hlineto
          990 hmoveto
          137 84 59 -1499 -59 425 6 callsubr
          104 231 callsubr
          140 callsubr
          -135 -15 callsubr
        </CharString>
        <CharString name="dvM_LA">
          1112 1509 485 rmoveto
          -161 hlineto
          -62 callgsubr
          -349 hlineto
          -5 -5 0 -1 -5 hvcurveto
          1 -162 78 840 vlineto
          -1104 55 callgsubr
          223 28 callsubr
          1443 196 rmoveto
          -1868 -21 callgsubr
          103 231 callsubr
          -335 -84 callgsubr
        </CharString>
        <CharString name="dvM_MA">
          1101 1501 -63 callgsubr
          -298 59 rmoveto
          -162 78 460 -78 -285 hlineto
          -5 -4 0 -4 hhcurveto
          -426 -315 rmoveto
          -105 callgsubr
          -48 -92 callsubr
          82 hlineto
          1432 196 rmoveto
          -1857 142 callsubr
          88 callsubr
          108 7 callgsubr
          vlineto
          endchar
        </CharString>
        <CharString name="dvM_NA">
          1083 1480 485 rmoveto
          -636 hlineto
          -5 219 callgsubr
          189 callsubr
          -733 -256 rmoveto
          -105 callgsubr
          -48 -92 callsubr
          82 hlineto
          1414 196 rmoveto
          -1839 142 callsubr
          38 callsubr
          88 -23 callgsubr
          vlineto
          endchar
        </CharString>
        <CharString name="dvM_PA">
          744 1141 -33 callgsubr
          -472 -78 rmoveto
          78 103 -78 vlineto
          -367 -315 rmoveto
          -105 callgsubr
          -48 -92 callsubr
          82 hlineto
          1075 196 rmoveto
          -1500 -21 callgsubr
          103 -273 -106 callsubr
          184 callgsubr
        </CharString>
        <CharString name="dvM_P_RA">
          751 1148 33 callgsubr
          -479 -78 rmoveto
          78 110 -78 vlineto
          -374 -315 rmoveto
          -105 callgsubr
          -48 -92 callsubr
          82 hlineto
          1082 196 rmoveto
          -1507 -21 callgsubr
          110 -223 71 callgsubr
        </CharString>
        <CharString name="dvM_R">
          18 643 -120 rmoveto
          393 303 rlineto
          182 vlineto
          -700 -485 rlineto
          64 351 215 callsubr
          264 59 rmoveto
          78 90 59 -774 -59 420 -78 -285 vlineto
          -53 -22 -22 -53 hvcurveto
          -196 166 callsubr
          212 372 59 vlineto
          endchar
        </CharString>
        <CharString name="dvM_RA">
          375 789 485 rmoveto
          -125 78 125 hlineto
          -389 -332 215 callsubr
          711 196 rmoveto
          -1131 -59 420 -78 -285 hlineto
          -53 -22 -22 -53 hvcurveto
          -196 166 callsubr
          212 125 -232 vlineto
          -26 callsubr
        </CharString>
        <CharString name="dvM_SA">
          1104 1501 32 callgsubr
          146 -367 78 432 hlineto
          -57 callsubr
          -730 -359 rmoveto
          -105 callgsubr
          -48 -92 callsubr
          82 hlineto
          1435 196 rmoveto
          -1860 -21 callgsubr
          103 92 callsubr
          465 -280 -36 callsubr
        </CharString>
        <CharString name="dvM_SHA">
          1100 405 130 callgsubr
          -48 -92 callsubr
          82 hlineto
          447 196 rmoveto
          -103 callsubr
          -62 -108 78 65 59 -754 -59 425 6 callsubr
          372 104 -106 callgsubr
          23 -93 callgsubr
          -175 33 callsubr
          39 -264 -286 hlineto
          -52 callsubr
          171 285 vlineto
          53 22 24 210 callsubr
        </CharString>
        <CharString name="dvM_TA">
          776 1176 485 rmoveto
          -332 hlineto
          -5 219 callgsubr
          507 vlineto
          -771 55 callgsubr
          223 28 callsubr
          1107 196 rmoveto
          -1532 -21 callgsubr
          101 143 callsubr
        </CharString>
        <CharString name="dvM_VA">
          751 1148 171 rmoveto
          -65 callsubr
          -42 -22 -14 -31 -8 hvcurveto
          -103 123 479 hlineto
          -743 55 callgsubr
          178 28 callsubr
          1082 241 rmoveto
          -1507 -59 425 -123 197 callgsubr
          -212 166 callsubr
          228 100 -228 144 callsubr
        </CharString>
        <CharString name="dvM_YA">
          990 1387 -97 callsubr
          -982 55 callgsubr
          223 28 callsubr
          1321 196 rmoveto
          -1746 -21 callgsubr
          103 59 -103 78 310 vlineto
          -98 callsubr
        </CharString>
        <CharString name="dvN">
          -2 734 5 callsubr
          -754 -59 754 hlineto
          -330 -393 -97 callgsubr
          433 59 rmoveto
          -727 -5 callgsubr
          179 vlineto
          endchar
        </CharString>
        <CharString name="dvNA">
          349 404 10 callgsubr
          -1105 -59 766 -78 -636 hlineto
          -53 -22 -22 -53 hvcurveto
          -257 87 callsubr
        </CharString>
        <CharString name="dvNG">
          135 210 -60 38 callgsubr
          209 346 44 callsubr
        </CharString>
        <CharString name="dvNGA">
          135 683 286 44 callsubr
        </CharString>
        <CharString name="dvNG_RA">
          138 686 286 rmoveto
          163 130 -163 hlineto
          -706 206 rmoveto
          -59 394 -78 -254 vlineto
          -103 callsubr
          -81 -106 callsubr
          90 callgsubr
          -107 11 callgsubr
          61 -264 -78 -106 callsubr
          3 25 callgsubr
          1 -102 callsubr
          143 -89 callgsubr
          -244 -51 callsubr
          45 -88 callgsubr
          295 137 236 59 hlineto
          endchar
        </CharString>
        <CharString name="dvNN">
          -15 412 12 callgsubr
          309 59 rmoveto
          -741 -59 68 -410 hlineto
          133 callsubr
          65 vlineto
          endchar
        </CharString>
        <CharString name="dvNNA">
          366 412 12 callgsubr
          690 59 rmoveto
          -1122 -59 68 -410 hlineto
          133 callsubr
          107 154 callgsubr
        </CharString>
        <CharString name="dvNN_DDA">
          692 412 12 callgsubr
          932 -137 rmoveto
          137 84 59 -1448 -59 68 81 callsubr
          424 -78 -254 vlineto
          -53 -22 -22 -53 hvcurveto
          -83 vlineto
          -53 22 -22 53 vhcurveto
          -64 callsubr
          endchar
        </CharString>
        <CharString name="dvNN_DDHA">
          722 412 12 callgsubr
          935 -137 rmoveto
          137 111 59 -1478 -59 68 81 callsubr
          427 -78 -259 vlineto
          -19 callgsubr
          endchar
        </CharString>
        <CharString name="dvNN_MA">
          1088 1488 -63 callgsubr
          -704 -256 234 callsubr
          1412 59 rmoveto
          -1844 -59 68 -410 hlineto
          133 callsubr
          460 -78 -285 vlineto
          -53 -22 -22 -53 hvcurveto
          191 callgsubr
        </CharString>
        <CharString name="dvNN_NNA">
          1074 1120 12 callgsubr
          -708 -393 234 callsubr
          1398 59 rmoveto
          -1830 -59 68 -410 hlineto
          133 callsubr
          100 81 callsubr
          107 154 callgsubr
        </CharString>
        <CharString name="dvNN_R">
          19 326 198 rmoveto
          -107 callgsubr
          332 120 -332 -99 callsubr
          203 -59 228 callgsubr
          349 99 59 -775 -59 68 -349 -106 callsubr
          204 -259 rmoveto
          307 hlineto
          393 304 rlineto
          181 vlineto
          endchar
        </CharString>
        <CharString name="dvNN_RA">
          366 412 231 217 callgsubr
          332 120 vlineto
          690 59 rmoveto
          -1122 -59 68 -349 hlineto
          -107 callsubr
          458 -102 callsubr
          349 124 -369 vlineto
          -26 callsubr
        </CharString>
        <CharString name="dvNN_TTA">
          706 412 12 callgsubr
          940 -137 232 callsubr
          -1462 -59 68 81 callsubr
          432 -78 -257 vlineto
          -103 callsubr
          -23 callsubr
        </CharString>
        <CharString name="dvNN_TTHA">
          737 1151 192 callgsubr
          -739 -223 234 callsubr
          1061 hmoveto
          59 -1493 -59 68 81 callsubr
          294 227 callsubr
          190 callsubr
        </CharString>
        <CharString name="dvNN_VA">
          738 412 12 callgsubr
          1062 59 rmoveto
          -1494 -59 68 -410 hlineto
          133 callsubr
          479 111 callgsubr
        </CharString>
        <CharString name="dvNN_YA">
          964 1361 -97 callsubr
          -949 -393 234 callsubr
          1288 59 rmoveto
          -1720 -59 68 -410 hlineto
          133 callsubr
          297 vlineto
          -98 callsubr
        </CharString>
        <CharString name="dvNY">
          -18 718 5 callsubr
          -738 -59 738 hlineto
          111 -245 rmoveto
          -186 92 hlineto
          18 callsubr
          186 vlineto
          endchar
        </CharString>
        <CharString name="dvNYA">
          348 1084 5 callsubr
          -1104 -59 765 -245 -102 92 hlineto
          18 callsubr
          102 -259 -36 callsubr
        </CharString>
        <CharString name="dvNY_CA">
          829 1565 5 callsubr
          -1585 -59 1246 134 callsubr
          -436 -59 103 hlineto
          29 callsubr
          -67 -144 92 vlineto
          18 callsubr
          144 -106 -106 callsubr
          332 -103 callgsubr
        </CharString>
        <CharString name="dvNY_CHA">
          1023 1300 485 rmoveto
          -74 -61 callgsubr
          248 hlineto
          459 hmoveto
          59 -1779 -59 793 vlineto
          29 callsubr
          -138 vlineto
          -53 22 -21 53 vhcurveto
          -5 -186 105 vlineto
          56 callgsubr
          93 112 vlineto
          -1 -5 0 -5 -5 vvcurveto
          74 callgsubr
          53 -22 22 -53 vhcurveto
          -75 78 hlineto
          endchar
        </CharString>
        <CharString name="dvNY_JA">
          1067 1803 5 callsubr
          -1823 -59 1484 164 callgsubr
          -254 -167 -110 92 vlineto
          18 callsubr
          110 -106 87 callsubr
        </CharString>
        <CharString name="dvNY_R">
          -20 843 5 callsubr
          -863 -59 863 hlineto
          -275 -394 228 callgsubr
          50 199 59 -199 57 -89 callgsubr
          -363 -59 140 -93 callgsubr
          -132 -99 callsubr
          86 callgsubr
          69 -264 -86 -106 callsubr
          712 84 rmoveto
          -510 -353 rlineto
          307 hlineto
          250 184 rlineto
          endchar
        </CharString>
        <CharString name="dvNY_RA">
          346 1082 5 callsubr
          -1102 -59 780 -210 -117 57 hlineto
          -85 callgsubr
          -363 -59 140 -93 callgsubr
          -162 66 callgsubr
          80 117 -100 vlineto
          -26 callsubr
        </CharString>
        <CharString name="dvNY_SHA">
          1081 643 5 callsubr
          -663 -59 663 hlineto
          190 59 53 callgsubr
          -49 -110 86 hlineto
          56 callgsubr
          112 110 -190 -2 callgsubr
        </CharString>
        <CharString name="dvN_BHA">
          1090 171 callgsubr
          414 55 callgsubr
          106 28 callsubr
          -714 -139 -97 callgsubr
          1422 196 rmoveto
          -339 -254 -105 179 252 callgsubr
          -62 -658 -34 callsubr
          374 104 61 callgsubr
          -162 61 callsubr
          -140 166 callsubr
          156 105 -309 -36 callsubr
        </CharString>
        <CharString name="dvN_BH_VA">
          1453 202 callgsubr
          424 -393 32 callsubr
          -714 -144 -97 callgsubr
          1785 196 84 callsubr
          -37 -89 174 vlineto
          105 callgsubr
          -62 -658 -34 callsubr
          374 104 98 callsubr
        </CharString>
        <CharString name="dvN_BH_YA">
          1680 202 callgsubr
          1383 -392 35 callsubr
          -714 -144 -97 callgsubr
          2012 196 124 callgsubr
          -287 242 callsubr
          -62 -658 -34 callsubr
          373 15 1 -28 callsubr
          80 -161 -106 callsubr
          -91 callsubr
        </CharString>
        <CharString name="dvN_CA">
          790 404 -71 callsubr
          1122 196 rmoveto
          -1546 -59 1207 134 callsubr
          -990 -5 callgsubr
          109 vlineto
          50 callsubr
          332 -103 callgsubr
        </CharString>
        <CharString name="dvN_CHA">
          1028 1305 485 rmoveto
          -74 -61 callgsubr
          248 hlineto
          -901 -393 -97 callgsubr
          1360 137 rmoveto
          59 -1784 -59 798 vlineto
          29 callsubr
          -37 -649 -34 callsubr
          101 -42 -75 callsubr
          74 callgsubr
          53 -22 22 -53 vhcurveto
          -75 78 hlineto
          endchar
        </CharString>
</ttFont>
